<svg xmlns="http://www.w3.org/2000/svg" xmlns:xlink="http://www.w3.org/1999/xlink" width="410.199" height="79.837" viewBox="0 0 410.199 79.837">
  <defs>
    <linearGradient id="linear-gradient" x1="0.5" x2="0.5" y2="1" gradientUnits="objectBoundingBox">
      <stop offset="0" stop-color="#0a939e"/>
      <stop offset="0.46" stop-color="#117a88"/>
      <stop offset="1" stop-color="#195d6e"/>
    </linearGradient>
  </defs>
  <g id="deco-brush-2" transform="translate(-2687.428 2808.927) rotate(-90)">
    <path id="Tracé_1243" data-name="Tracé 1243" d="M112.895,3.462c0-1.743-.75-.248,0,0,0-.271-.813-.269,0,0" transform="translate(2647.072 2684.799)" fill="url(#linear-gradient)"/>
    <path id="Tracé_1244" data-name="Tracé 1244" d="M112.829,3.551q-.948-.135-.271,1.355.948.135.271-1.355c-.09,0,0,.452,0,0" transform="translate(2646.867 2685.522)" fill="url(#linear-gradient)"/>
    <path id="Tracé_1245" data-name="Tracé 1245" d="M112.689,6.5a5.876,5.876,0,0,0,.271-1.9c-1.563,0-.544,1.452-.271,1.9.09,0-.318-.517,0,0" transform="translate(2646.736 2686.367)" fill="url(#linear-gradient)"/>
    <path id="Tracé_1246" data-name="Tracé 1246" d="M125.278,5.361q-1.071-.135-.542,1.624,1.351.272.542-1.624c-.09,0,0,.542,0,0" transform="translate(2656.629 2686.962)" fill="url(#linear-gradient)"/>
    <path id="Tracé_1247" data-name="Tracé 1247" d="M112.1,7.466c0,.9-.271-.84-.271,1.355,1.427-.547,1.387-1.052,1.084-2.71-.431.12-1.477,1.355-.813,1.355,0,.09-.09,0,0,0" transform="translate(2646.513 2687.565)" fill="url(#linear-gradient)"/>
    <path id="Tracé_1248" data-name="Tracé 1248" d="M112.913,9.246V7.62c-.951,0-1.084,1.818-1.084,2.439.782,0,.031-.287,1.084-.813,0-.542-.181.09,0,0" transform="translate(2646.512 2688.765)" fill="url(#linear-gradient)"/>
    <path id="Tracé_1249" data-name="Tracé 1249" d="M124.809,8.559c1.023,0,0-1.7,0,0,.09,0,0-.271,0,0" transform="translate(2656.827 2688.909)" fill="url(#linear-gradient)"/>
    <path id="Tracé_1250" data-name="Tracé 1250" d="M112.173,10.007c.781-2.6-1.287,1.028,0,0,.158-.528-.3.239,0,0" transform="translate(2646.441 2689.9)" fill="url(#linear-gradient)"/>
    <path id="Tracé_1251" data-name="Tracé 1251" d="M112.682,9.432c-.894,0-.592,1.777,0,0-.181,0-.09.271,0,0" transform="translate(2646.743 2690.204)" fill="url(#linear-gradient)"/>
    <path id="Tracé_1252" data-name="Tracé 1252" d="M111.7,13.285c.26,0,0,1.45,0,2.166,1.515,0,1.247-4.594,1.084-5.416-1.068,0-1.213,2.52-1.084,3.25.09,0-.14-.788,0,0" transform="translate(2646.372 2690.684)" fill="url(#linear-gradient)"/>
    <path id="Tracé_1253" data-name="Tracé 1253" d="M125.182,13.56q1.653-2.194-.542-2.166-.8,2.3.542,2.166c.181-.632-.09,0,0,0" transform="translate(2656.453 2691.763)" fill="url(#linear-gradient)"/>
    <path id="Tracé_1254" data-name="Tracé 1254" d="M122.308,11.612q-1.489-.538-1.084.813,1.491.544,1.084-.813c-.361,0,0,.271,0,0" transform="translate(2653.909 2691.815)" fill="url(#linear-gradient)"/>
    <path id="Tracé_1255" data-name="Tracé 1255" d="M106.293,12.132c0-.51-1.009-.287,0,0,0-.09-.544-.156,0,0" transform="translate(2641.757 2692.108)" fill="url(#linear-gradient)"/>
    <path id="Tracé_1256" data-name="Tracé 1256" d="M114.395,11.846c0,.992.45.45,0,0,0,.181.309.309,0,0" transform="translate(2648.551 2692.123)" fill="url(#linear-gradient)"/>
    <path id="Tracé_1257" data-name="Tracé 1257" d="M125.532,12c-.612,0,0,1.972,0,0-.09,0,0,.271,0,0" transform="translate(2657.185 2692.243)" fill="url(#linear-gradient)"/>
    <path id="Tracé_1258" data-name="Tracé 1258" d="M106.184,13.924c.12-.772.391-1.624-.542-1.624,0,.964-.018,1.064.542,1.624.156-1.005-.309-.309,0,0" transform="translate(2641.595 2692.484)" fill="url(#linear-gradient)"/>
    <path id="Tracé_1259" data-name="Tracé 1259" d="M120.956,25.179c1.682.59,2.582-12.729.813-12.729-.621,3.1.111,3.55.271,5.416-1.859,0-1.084,5.935-1.084,7.313.657.23,0-.09,0,0" transform="translate(2653.637 2692.603)" fill="url(#linear-gradient)"/>
    <path id="Tracé_1260" data-name="Tracé 1260" d="M112.487,13.6c-1.811-.9,0,1.35,0,0-.181-.09,0,.09,0,0" transform="translate(2646.396 2693.345)" fill="url(#linear-gradient)"/>
    <path id="Tracé_1261" data-name="Tracé 1261" d="M105.3,15.553c1.737,0-.971,4.334,1.355,4.334-.725-1.988.271-4.567.271-6.229-.826,0-2.484,1.037-1.626,1.9.09,0-.309-.309,0,0" transform="translate(2641.129 2693.563)" fill="url(#linear-gradient)"/>
    <path id="Tracé_1262" data-name="Tracé 1262" d="M125.261,13.808c0,.992.45.45,0,0,0,.181.309.309,0,0" transform="translate(2657.186 2693.682)" fill="url(#linear-gradient)"/>
    <path id="Tracé_1263" data-name="Tracé 1263" d="M112.028,14.4c0-.51-1.009-.287,0,0,0-.09-.544-.156,0,0" transform="translate(2646.314 2693.907)" fill="url(#linear-gradient)"/>
    <path id="Tracé_1264" data-name="Tracé 1264" d="M111.981,14.11c0,.992.45.45,0,0,0,.181.309.309,0,0" transform="translate(2646.633 2693.922)" fill="url(#linear-gradient)"/>
    <path id="Tracé_1265" data-name="Tracé 1265" d="M125.47,15.465c0,.818,1.01.221.542,1.624-.657-.074-.842-.54-1.355-.54a18.848,18.848,0,0,0,.542,5.145c1.163-.35,2.859-7.584.813-7.584q.393,1.489-.542,1.355c0,.09.09,0,0,0" transform="translate(2656.706 2693.922)" fill="url(#linear-gradient)"/>
    <path id="Tracé_1266" data-name="Tracé 1266" d="M112.341,14.784c.291,0-.813-.689-.813.813q1.219.406.813-.813c.09,0,0,.271,0,0" transform="translate(2646.273 2694.332)" fill="url(#linear-gradient)"/>
    <path id="Tracé_1267" data-name="Tracé 1267" d="M110.169,14.714c0,.992.45.45,0,0,0,.181.309.309,0,0" transform="translate(2645.193 2694.402)" fill="url(#linear-gradient)"/>
    <path id="Tracé_1268" data-name="Tracé 1268" d="M109.5,16.469c0-1.007-.415-.415,0,0,0-.09-.309-.309,0,0" transform="translate(2644.512 2695.355)" fill="url(#linear-gradient)"/>
    <path id="Tracé_1269" data-name="Tracé 1269" d="M100.963,16.223c0,.992.45.45,0,0,0,.181.309.309,0,0" transform="translate(2637.877 2695.601)" fill="url(#linear-gradient)"/>
    <path id="Tracé_1270" data-name="Tracé 1270" d="M105.568,16.223c-1.158,0,0,.476,0,0-.181,0,0,.09,0,0" transform="translate(2641.128 2695.601)" fill="url(#linear-gradient)"/>
    <path id="Tracé_1271" data-name="Tracé 1271" d="M111.93,16.374c-1.276,0,0,1.276,0,0-.181,0,0,.181,0,0" transform="translate(2646.142 2695.721)" fill="url(#linear-gradient)"/>
    <path id="Tracé_1272" data-name="Tracé 1272" d="M106.153,18.243c-.206-.738-.065-.617-.813-.813.206.738.065.617.813.813" transform="translate(2641.355 2696.56)" fill="url(#linear-gradient)"/>
    <path id="Tracé_1273" data-name="Tracé 1273" d="M101.234,17.581c-.612,0,0,1.974,0,0-.09,0,0,.271,0,0" transform="translate(2637.877 2696.68)" fill="url(#linear-gradient)"/>
    <path id="Tracé_1274" data-name="Tracé 1274" d="M101.567,17.732c0,.992.45.45,0,0,0,.181.309.309,0,0" transform="translate(2638.357 2696.8)" fill="url(#linear-gradient)"/>
    <path id="Tracé_1275" data-name="Tracé 1275" d="M124.232,18.337c-.321-1.062.757.757,0,0-.163-.54.309.309,0,0" transform="translate(2656.319 2697.009)" fill="url(#linear-gradient)"/>
    <path id="Tracé_1276" data-name="Tracé 1276" d="M111.679,18.865c.474,0,0-1.156,0,0,.09,0,0-.181,0,0" transform="translate(2646.393 2697.293)" fill="url(#linear-gradient)"/>
    <path id="Tracé_1277" data-name="Tracé 1277" d="M124.848,18.5c-.2,0,0,.129,0,0-.09,0,0-.09,0,0" transform="translate(2656.788 2697.382)" fill="url(#linear-gradient)"/>
    <path id="Tracé_1278" data-name="Tracé 1278" d="M114.093,18.487c0,.992.45.45,0,0,0,.181.309.309,0,0" transform="translate(2648.311 2697.4)" fill="url(#linear-gradient)"/>
    <path id="Tracé_1279" data-name="Tracé 1279" d="M125.057,23.513c.025.066,1.637,1.626,1.355,1.626,0-2.41,1.064-.752.54-2.981,1.685,0,.034.813,1.355.813-.7-4.174,0-.228,0-2.166-1.983,1.321-1.165-1.42-1.626-2.168-1.78.486-2.927,4.5-1.624,4.876.305.8-.544-.156,0,0" transform="translate(2656.579 2697.519)" fill="url(#linear-gradient)"/>
    <path id="Tracé_1280" data-name="Tracé 1280" d="M104.971,23.815c.973.486.269,1.716.271,2.708,1.811,0,1.03-6.29,1.355-7.584-1.289,0-2.236,3.333-1.626,4.876.181.09-.28-.709,0,0" transform="translate(2640.912 2697.759)" fill="url(#linear-gradient)"/>
    <path id="Tracé_1281" data-name="Tracé 1281" d="M117.535,18.94c-.614,0,0,1.972,0,0-.09,0,0,.271,0,0" transform="translate(2650.829 2697.76)" fill="url(#linear-gradient)"/>
    <path id="Tracé_1282" data-name="Tracé 1282" d="M123.951,19.224c0-.508-1.009-.285,0,0,0-.088-.544-.154,0,0" transform="translate(2655.788 2697.745)" fill="url(#linear-gradient)"/>
    <path id="Tracé_1283" data-name="Tracé 1283" d="M111.317,19.44c.836,0-.388.978.732.768.623-.117-1.005-.9-.732-.768.09,0-.506-.244,0,0" transform="translate(2645.941 2698.071)" fill="url(#linear-gradient)"/>
    <path id="Tracé_1284" data-name="Tracé 1284" d="M121.187,19.543c0,.992.45.45,0,0,0,.181.309.309,0,0" transform="translate(2653.948 2698.239)" fill="url(#linear-gradient)"/>
    <path id="Tracé_1285" data-name="Tracé 1285" d="M101.955,19.845c-1.972,0,0,.614,0,0-.271,0,0,.09,0,0" transform="translate(2637.969 2698.479)" fill="url(#linear-gradient)"/>
    <path id="Tracé_1286" data-name="Tracé 1286" d="M113.942,19.845c0,.992.45.45,0,0,0,.181.309.309,0,0" transform="translate(2648.191 2698.479)" fill="url(#linear-gradient)"/>
    <path id="Tracé_1287" data-name="Tracé 1287" d="M122.907,21.1q-.07-1.384-1.626-1.084c-.517,1.556-.8,5.388-.269,6.771.269-.09.361,0,.269.271,2.611-.522.991-5.958,1.626-5.958-.09-.271-.09,0,0,0" transform="translate(2653.582 2698.576)" fill="url(#linear-gradient)"/>
    <path id="Tracé_1288" data-name="Tracé 1288" d="M123.708,20.468c0,.788-.519-.147,0,0,0,.181-.544-.156,0,0" transform="translate(2655.76 2698.94)" fill="url(#linear-gradient)"/>
    <path id="Tracé_1289" data-name="Tracé 1289" d="M101.114,20.978c.474,0,0-1.156,0,0,.09,0,0-.181,0,0" transform="translate(2637.997 2698.972)" fill="url(#linear-gradient)"/>
    <path id="Tracé_1290" data-name="Tracé 1290" d="M107.3,20.449c0,.992.45.45,0,0,0,.181.309.309,0,0" transform="translate(2642.915 2698.959)" fill="url(#linear-gradient)"/>
    <path id="Tracé_1291" data-name="Tracé 1291" d="M109.717,20.449c0,.992.45.45,0,0,0,.181.309.309,0,0" transform="translate(2644.834 2698.959)" fill="url(#linear-gradient)"/>
    <path id="Tracé_1292" data-name="Tracé 1292" d="M111.226,22.615c.752,0,.325-1.84,0-2.166v2.166c.09,0,0-.181,0,0" transform="translate(2646.033 2698.959)" fill="url(#linear-gradient)"/>
    <path id="Tracé_1293" data-name="Tracé 1293" d="M110.154,21.249c-.3-1-.5,0,0,0-.163-.54-.09,0,0,0" transform="translate(2644.939 2699.241)" fill="url(#linear-gradient)"/>
    <path id="Tracé_1294" data-name="Tracé 1294" d="M114.2,24.964c.926-2.006.21-2.067.542-4.063-.51,0-1.892,4.063-.542,4.063.2-.436-.09,0,0,0" transform="translate(2647.937 2699.318)" fill="url(#linear-gradient)"/>
    <path id="Tracé_1295" data-name="Tracé 1295" d="M109.566,21.905c1.041,0,0-2.033,0,0,.09,0,0-.271,0,0" transform="translate(2644.714 2699.398)" fill="url(#linear-gradient)"/>
    <path id="Tracé_1296" data-name="Tracé 1296" d="M101.714,25.99c-.275-1.515.68-.946-.542-2.166a3.948,3.948,0,0,1,1.355-.271,1.582,1.582,0,0,0-1.084-1.9c0,2.055-1.084,2.728-1.084,4.876q1.5,1.89,1.355-.542" transform="translate(2637.397 2699.918)" fill="url(#linear-gradient)"/>
    <path id="Tracé_1297" data-name="Tracé 1297" d="M117.112,23.733q1.354.272.542-1.624c-.644,0-.447,1-.542,1.624.181,0,.074-.481,0,0" transform="translate(2650.71 2700.278)" fill="url(#linear-gradient)"/>
    <path id="Tracé_1298" data-name="Tracé 1298" d="M125.412,22.939c.474,0,0-1.156,0,0,.09,0,0-.181,0,0" transform="translate(2657.306 2700.53)" fill="url(#linear-gradient)"/>
    <path id="Tracé_1299" data-name="Tracé 1299" d="M109.234,22.562c-.614,0,0,1.972,0,0-.09,0,0,.271,0,0" transform="translate(2644.233 2700.638)" fill="url(#linear-gradient)"/>
    <path id="Tracé_1300" data-name="Tracé 1300" d="M123.7,23.014c-1.276,0,0,1.276,0,0-.181,0,0,.181,0,0" transform="translate(2655.495 2700.997)" fill="url(#linear-gradient)"/>
    <path id="Tracé_1301" data-name="Tracé 1301" d="M107.425,23.573c0,.2-.626-.628,0,0,0,.09-.309-.309,0,0" transform="translate(2642.792 2701.251)" fill="url(#linear-gradient)"/>
    <path id="Tracé_1302" data-name="Tracé 1302" d="M105.759,25.483c.2-.52,1.084-1.373,1.084-1.624q-.826-.232-1.626-.542c.09.271,0,.361-.271.271,0,.761-.621,1.418.813,1.9.158-.413-.271-.09,0,0" transform="translate(2640.937 2701.238)" fill="url(#linear-gradient)"/>
    <path id="Tracé_1303" data-name="Tracé 1303" d="M111.474,25.212c0-.553.271-1.24.271-1.9-1.186.395-.939,1.226-.271,1.9,0-.09-.309-.309,0,0" transform="translate(2645.785 2701.238)" fill="url(#linear-gradient)"/>
    <path id="Tracé_1304" data-name="Tracé 1304" d="M120.4,67.193c0,.641,1.082-.144,1.355-.271,0,1.251-1.43,1.036-1.369,2.055.02.309,2.451,5,2.451,5.8-1.583.528-.027-.271-1.624-.271.273.822-1.725,11.916,2.166,11.916.011-1.726.187-2.5,1.626-3.25-.092.271,0,.361.271.271q.366,1.621-.813,1.355c2.268,3.211,4.174,5.958-1.084,5.958,1.007,3.015-1.353,3.34-1.353,7.042,3.087-.31.131,0,1.353,0-1.3,1.543-2.678,10.03.542,11.105q-.156-1.128.813-1.355c0,1.263,1.9,2.193,1.9.271.452,0,1.084,1.368,1.084,1.9q-.406-.135-.271.271c-1.66,0-5.536.355-4.876,3.521,1.285,6.148,6.249.271,8.939.271,0,2.125-.271,3.6-.271,5.147.415,0,.264.262.542.54,0-1.01.695,1,0-1.082.831.441,3.577,1.807,5.145,1.9-.255-1,.346-1.9-.813-1.9.682-2.046.031-2.326.271-4.063.232-1.665.705-2.094,1.355-4.334,2.466.494,1.353,5.567,1.353,7.584a27.832,27.832,0,0,1,2.439-2.166c-1.055-.33-4.226-5.689-.542-5.689-2.277-3.413-1.658-6.509-1.49-10.832.09-2.34-1.267-10.834.406-10.834-.05.16-1.561-6.037-1.624-6.637-.393-3.74-.16-6.637-2.168-10.156,1.8,0-.921-38.732-3.79-38.732,0-2.145,3.017-6.872-1.9-7.853a1.032,1.032,0,0,0,.542-1.355c-1.723.659-1.967.928-1.626,2.979-1.256.162-2.087-.438-3.25,0,.273,2.319,1.581,5.294-1.082,5.958.036-2.2-1.626-2.387-1.626-5.145-.987.258-2.708,3.126-2.708,3.792,1.98,0,.436.651,2.166,1.084,0,.321-1.723,1.17-1.624,1.761.341,2.053.913,2.85.813,5.011-.158,3.37-1.355,5.012-1.355,8.937.991-.477,2.215,1.183,0,1.624q1.193.218,1.084,1.084-1.491-.541-1.084.813c2.315,0-.542,2.744-.542,3.521,4.941,0-.565,11.622.271,12.458,0,.09-.309-.309,0,0" transform="translate(2653.108 2701.237)" fill="url(#linear-gradient)"/>
    <path id="Tracé_1305" data-name="Tracé 1305" d="M117.112,23.467c0,.992.45.45,0,0,0,.181.309.309,0,0" transform="translate(2650.71 2701.357)" fill="url(#linear-gradient)"/>
    <path id="Tracé_1306" data-name="Tracé 1306" d="M124.7,23.524q-.385,1.112.813,1.084.961-1.61-.813-1.084c0,.271.361,0,0,0" transform="translate(2656.665 2701.3)" fill="url(#linear-gradient)"/>
    <path id="Tracé_1307" data-name="Tracé 1307" d="M120.885,24.653c.463-.664,0-1.007,0,0h0" transform="translate(2653.708 2701.797)" fill="url(#linear-gradient)"/>
    <path id="Tracé_1308" data-name="Tracé 1308" d="M124.252,24.206c0-.51-1.009-.287,0,0,0-.09-.544-.156,0,0" transform="translate(2656.028 2701.703)" fill="url(#linear-gradient)"/>
    <path id="Tracé_1309" data-name="Tracé 1309" d="M113.641,25.966c0,.9.045.865.813,1.084a25.668,25.668,0,0,0,.271-2.979c-1.053.35-.861,1.9-1.084,1.9,0,.271.09,0,0,0" transform="translate(2647.952 2701.837)" fill="url(#linear-gradient)"/>
    <path id="Tracé_1310" data-name="Tracé 1310" d="M107.651,24.508c0-.51-1.009-.287,0,0,0-.09-.544-.156,0,0" transform="translate(2642.836 2701.943)" fill="url(#linear-gradient)"/>
    <path id="Tracé_1311" data-name="Tracé 1311" d="M121.745,24.373c.2,0-.628.626,0,0,.09,0-.309.309,0,0" transform="translate(2654.202 2702.077)" fill="url(#linear-gradient)"/>
    <path id="Tracé_1312" data-name="Tracé 1312" d="M104.915,24.659q-1.082-.813-1.084.542,1.354.541,1.084-.542c-.271-.09,0,.181,0,0" transform="translate(2640.157 2702.063)" fill="url(#linear-gradient)"/>
    <path id="Tracé_1313" data-name="Tracé 1313" d="M105.175,25.766c0,.843.892.057,2.166.271,0-2.561-4.444-.867-2.166-.271,0,.181-.748-.2,0,0" transform="translate(2640.708 2702.308)" fill="url(#linear-gradient)"/>
    <path id="Tracé_1314" data-name="Tracé 1314" d="M111.5,24.524c-.612,0,0,1.972,0,0-.09,0,0,.271,0,0" transform="translate(2646.032 2702.197)" fill="url(#linear-gradient)"/>
    <path id="Tracé_1315" data-name="Tracé 1315" d="M117.567,25.511c-.537-1.778-1.233-.323,0,0-.163-.54-.748-.2,0,0" transform="translate(2650.526 2702.293)" fill="url(#linear-gradient)"/>
    <path id="Tracé_1316" data-name="Tracé 1316" d="M115.576,26.57c0,1.141.542-1.856.542-1.9-1.488,0-.494,1.9-.542,1.9,0,.09-.09,0,0,0" transform="translate(2649.267 2702.317)" fill="url(#linear-gradient)"/>
    <path id="Tracé_1317" data-name="Tracé 1317" d="M107.355,25.292c-.106,0,.074-.074,0,0,.09,0-.309.309,0,0" transform="translate(2642.862 2702.782)" fill="url(#linear-gradient)"/>
    <path id="Tracé_1318" data-name="Tracé 1318" d="M111.477,24.976c-1.276,0,0,1.276,0,0-.181,0,0,.181,0,0" transform="translate(2645.782 2702.556)" fill="url(#linear-gradient)"/>
    <path id="Tracé_1319" data-name="Tracé 1319" d="M96.831,87.422q-2.592,4.875.271,4.605c-.1-.319-.271-.5-.271-.813,1.874-.039,1.061.542,2.437.542,0,1.079-.542,1.242-.542,2.166,2.091-.8,4.634-.98,4.063,2.708-.208,0,2.333-3.209,2.437-3.521-4.9-3.108,2.981-6.927,2.981-4.6-.666,0-1.658.818-2.168,2.166,1.631.687,2.367-.115,3.521.271,0,1.251-4.8,16.251-1.624,16.251,0-2.426,2.166-2.394,2.166-5.145,1.348,0,3.074-1.355,5.145-1.355,0-2.726,3.521-4.485,3.521-.813-.318-.1-.5-.271-.811-.271.255,2.3-.093,7.042,2.979,7.042,0-1.032,2.057-1.735.542-3.25.6,0,1.025-1.884,2.437-2.166,0-.975-1.084-.305-1.084-1.626A7.741,7.741,0,0,0,125,99.88c0,1.813.8.382,2.166,0,0,1.411,4.655,2.6,6.095,2.3,2.258-.463,1.267-3.116,3.656-3.116-2.5-3.124,1.355-1.184,1.355-3.25-.359,0-5.689-1.992-5.689-4.061-.75-.824-1.831.721-1.624-2.979,1.079,0,1.353.958,1.353,1.624,2.276,0,1.446-2.879,1.084-4.334a23.942,23.942,0,0,1,2.979-1.082c-1.4-5.6-5.118,1.326-5.958,2.166-1.838-1.863-.2-1.43-4.605-2.166q.2-1.12,1.355-.813c-.992-1.307,2.073-1.312,2.166-1.355,3.141-1.438,3.806-.232,2.708-3.521.319-.1.5-.271.813-.271.111-.124-.542-.314-.542-.54.271.09.363,0,.271-.271,1.875.285,1.062,2.708,2.979,2.708,0,1.588-.811.237-.811,1.084.271-.092.361,0,.271.269.8-.2,1.057-.811,1.353-.811.312-.838-2.118-3.074,0-4.334-.592-.668-1.581-.5-2.166-1.084.937,0,2.048-2.444-.542-1.9.09-.271,0-.361-.271-.271.913-1.371-1.9-5.628.813-4.605,0,.427-.12,3.792,1.353,3.792a42.433,42.433,0,0,1,.813-14.9c-.7,0-1.926.542-2.708.542,0-1.6-.813-2.071-.813-3.792-1.235.617-2.979.768-2.979-1.355.928.111,1.123.271,1.626.271-.818-3.178-1.92-.542-2.439-.542,0-.289-5.145,1.055-5.145-2.437,1.734.522.542-.325.542-1.355a8.2,8.2,0,0,0,4.332.271c-1.777,6.908-.54,0-.54,1.9,1.436-.162.775-.7,1.082-1.626,1.764,0,1,2.166,2.979,2.166-.172-1.314-1.082-1.981-1.082-3.519-.345,0-.282.815-1.084,1.082,0,.51-1.893-5.2,0-4.334-.271.092-.361,0-.271-.269,1.165.388.406,1.082,1.355,1.082.958-3.841-2.168-4.623-2.168-7.311,3.329,0,1.9.434,1.9-1.084-.838.531-.651,1.025-1.084-.271.361.09.452-.09.271-.542,1.174,0-.09.542,1.084.542a3.348,3.348,0,0,1,.271-2.437c-3.216-.5-3.991,6.213-4.334,7.582-1.425.031-1.463-.811-2.437-.811,1.245-3.742,1.238,6.859.54-5.689-2.017-.673.106.49-1.274.223-.411-.079-.075-1.61-.079-2.931.745,0-.2.813.542.813,0-3.1-3.521-7.857-3.521-3.521-2.879-.3.7-1.116-2.979-.813,0-2.193-.271-.45-.271-1.353-.38,0-2.728,1.353-4.334,1.353a8.385,8.385,0,0,0,.813-3.25c-3.972,1.561-4.334.691-4.334,5.418,2.362-1.073,1.734.811.542.811a6.007,6.007,0,0,0,2.708,2.979c-.623,2.014-2.708.937-2.708,3.25q-1.166.264-.271-1.082c-9.8,1.7-.89-4.415-4.876-8.4,1.061-.406,1.626-1.353,0-1.353,0-.594,1-3.25-1.353-3.25.65,1.953-1.355,5.228-1.355,6.771a4.928,4.928,0,0,1,2.979-.813c0,1.368-2.943.813-3.25.813-1.059,2.328.2,9.257-3.25,10.561.513,1.831,1.581,1.084,2.708,1.084,0,.587.271-.045.271.542-.415,0-.264.264-.54.542,0-1.1-2.439.192-2.439.811,3.038,0-.271.576-.271,2.439.836,0,.37.1.813.542,0-1.262.542.267.542-1.355q1.72.312,1.355,2.166c-5.578-.307-1.355,1.427-1.355,2.71-.354,0-.542.465-.542.811.011,0-1.9-1.385-1.9,1.626,2.886,0,.6.271,1.624.271,0,.759-1.507,3.487-1.9,5.145,4.268,0,4.614,4.334-.271,4.334.084,2-1.308,23-.271,23.293-.131,1.321-.544-.156,0,0" transform="translate(2633.615 2702.677)" fill="url(#linear-gradient)"/>
    <path id="Tracé_1320" data-name="Tracé 1320" d="M111.946,25.429l-1.626.271c.1.319.271.5.271.813q2.019,1.093,1.355-1.084c-.463.178,0,.45,0,0" transform="translate(2645.313 2702.917)" fill="url(#linear-gradient)"/>
    <path id="Tracé_1321" data-name="Tracé 1321" d="M109.915,26.168c0-.51-1.009-.287,0,0,0-.09-.544-.156,0,0" transform="translate(2644.635 2703.262)" fill="url(#linear-gradient)"/>
    <path id="Tracé_1322" data-name="Tracé 1322" d="M114.7,26.209c.2,0,0-.129,0,0,.09,0,0,.09,0,0" transform="translate(2648.791 2703.491)" fill="url(#linear-gradient)"/>
    <path id="Tracé_1323" data-name="Tracé 1323" d="M117.232,26.033c-.612,0,0,1.972,0,0-.09,0,0,.271,0,0" transform="translate(2650.59 2703.396)" fill="url(#linear-gradient)"/>
    <path id="Tracé_1324" data-name="Tracé 1324" d="M111.075,27.014c.474,0,0-1.156,0,0,.09,0,0-.181,0,0" transform="translate(2645.913 2703.768)" fill="url(#linear-gradient)"/>
    <path id="Tracé_1325" data-name="Tracé 1325" d="M107.511,26.787c-.887,0-.312.312,0,0-.09,0-.309.309,0,0" transform="translate(2642.705 2703.996)" fill="url(#linear-gradient)"/>
    <path id="Tracé_1326" data-name="Tracé 1326" d="M110.57,27.6c0-.935.52-.562-1.084-.813-.447,1.341.084.49,1.084.813,0-.09-.847-.273,0,0" transform="translate(2644.523 2703.996)" fill="url(#linear-gradient)"/>
    <path id="Tracé_1327" data-name="Tracé 1327" d="M99.213,27.746c0,.045-.1-.1,0,0,0,.09-.309-.309,0,0" transform="translate(2636.377 2704.663)" fill="url(#linear-gradient)"/>
    <path id="Tracé_1328" data-name="Tracé 1328" d="M117.38,27.391c-.592,0,0,2.665,0,0-.09,0,0,.361,0,0" transform="translate(2650.714 2704.476)" fill="url(#linear-gradient)"/>
    <path id="Tracé_1329" data-name="Tracé 1329" d="M98.247,27.693c0,.992.45.45,0,0,0,.181.309.309,0,0" transform="translate(2635.719 2704.716)" fill="url(#linear-gradient)"/>
    <path id="Tracé_1330" data-name="Tracé 1330" d="M115.033,29.739c0-.449.42-1.9-.813-1.9.181.45.091.632-.271.54q-.153,1.324,1.084,1.355c0-.09-.271-.09,0,0" transform="translate(2648.184 2704.836)" fill="url(#linear-gradient)"/>
    <path id="Tracé_1331" data-name="Tracé 1331" d="M116.355,29.771c0-.91-.393-1.626-1.357-1.626a1.5,1.5,0,0,0,1.357,1.626c0-.271-.919-.206,0,0" transform="translate(2649.03 2705.075)" fill="url(#linear-gradient)"/>
    <path id="Tracé_1332" data-name="Tracé 1332" d="M117.461,28.582c0-.51-1.009-.285,0,0,0-.088-.544-.154,0,0" transform="translate(2650.632 2705.18)" fill="url(#linear-gradient)"/>
    <path id="Tracé_1333" data-name="Tracé 1333" d="M98.1,28.6c0,.992.45.45,0,0,0,.181.309.309,0,0" transform="translate(2635.599 2705.435)" fill="url(#linear-gradient)"/>
    <path id="Tracé_1334" data-name="Tracé 1334" d="M117.64,30.375V28.749c-.486,0-.341.542-.813.542q-.221,1.346.813,1.084c0-.542-.181,0,0,0" transform="translate(2650.453 2705.555)" fill="url(#linear-gradient)"/>
    <path id="Tracé_1335" data-name="Tracé 1335" d="M112.131,29.535c2.028,0,0-.926,0,0,.271,0,0-.09,0,0" transform="translate(2646.752 2705.853)" fill="url(#linear-gradient)"/>
    <path id="Tracé_1336" data-name="Tracé 1336" d="M98.6,29.488c0-.51-1.009-.289,0,0,0-.09-.544-.156,0,0" transform="translate(2635.641 2705.9)" fill="url(#linear-gradient)"/>
    <path id="Tracé_1337" data-name="Tracé 1337" d="M115.8,30.061c0-1.3-1,0,0,0,0-.181-.09,0,0,0" transform="translate(2649.313 2706.14)" fill="url(#linear-gradient)"/>
    <path id="Tracé_1338" data-name="Tracé 1338" d="M120.281,29.5c0,.992.45.45,0,0,0,.181.309.309,0,0" transform="translate(2653.229 2706.155)" fill="url(#linear-gradient)"/>
    <path id="Tracé_1339" data-name="Tracé 1339" d="M104.009,29.7q-1.112-.385-1.084.813,1.346.221,1.084-.813c-.271,0,0,.181,0,0" transform="translate(2639.436 2706.233)" fill="url(#linear-gradient)"/>
    <path id="Tracé_1340" data-name="Tracé 1340" d="M117.36,31.733c0,.562.02,1.084.542,1.084-.23-1.488.849-2.387-.813-2.71-.147.488-.7,1.626.271,1.626,0,.271-.09,0,0,0" transform="translate(2650.462 2706.634)" fill="url(#linear-gradient)"/>
    <path id="Tracé_1341" data-name="Tracé 1341" d="M117.134,38.419q-.678,1.489.271,1.355c0-3.211.989-4.855.271-7.855-1.251,0-1.037,5.9-.542,6.5,0,.452-.456-.549,0,0" transform="translate(2650.417 2708.074)" fill="url(#linear-gradient)"/>
    <path id="Tracé_1342" data-name="Tracé 1342" d="M97.945,32.581c.251,0,0-1.068,0,0,.09,0,0-.09,0,0" transform="translate(2635.479 2708.223)" fill="url(#linear-gradient)"/>
    <path id="Tracé_1343" data-name="Tracé 1343" d="M98.55,32.522c-1.542.465,0,.879,0,0-.54.163,0,.181,0,0" transform="translate(2635.416 2708.553)" fill="url(#linear-gradient)"/>
    <path id="Tracé_1344" data-name="Tracé 1344" d="M117.565,35.993c0,.992.45.45,0,0,0,.181.309.309,0,0" transform="translate(2651.07 2711.311)" fill="url(#linear-gradient)"/>
    <path id="Tracé_1345" data-name="Tracé 1345" d="M117.585,37.362c0-1.592-.642-.2-.271,1.355.921-.461.355,0,1.084,0q.366-1.621-.813-1.355c0-.271.181,0,0,0" transform="translate(2650.779 2711.839)" fill="url(#linear-gradient)"/>
    <path id="Tracé_1346" data-name="Tracé 1346" d="M117.171,37.955a15.917,15.917,0,0,0,0,3.792c2.349-.237,2.356-2.9,0-3.792,0,.09.415.156,0,0" transform="translate(2650.651 2712.87)" fill="url(#linear-gradient)"/>
    <path id="Tracé_1347" data-name="Tracé 1347" d="M120.683,39.163c-1.276,0,0,1.276,0,0-.181,0,0,.181,0,0" transform="translate(2653.097 2713.83)" fill="url(#linear-gradient)"/>
    <path id="Tracé_1348" data-name="Tracé 1348" d="M118.466,40.562c-.025-.027-1.355.047-1.355.813.027.027,1.355-.048,1.355-.813-.262-.28,0,.181,0,0" transform="translate(2650.709 2714.868)" fill="url(#linear-gradient)"/>
    <path id="Tracé_1349" data-name="Tracé 1349" d="M118.408,41.276c-.587,0-.542-.007-.542,1.084q1.47.393.542-1.084c-.09,0,.156.415,0,0" transform="translate(2651.309 2715.509)" fill="url(#linear-gradient)"/>
    <path id="Tracé_1350" data-name="Tracé 1350" d="M117.112,42.741c0,.906.126.2.813.542,0-1.639-.178-1.177-.813-.542,0,.181.309-.309,0,0" transform="translate(2650.71 2716.211)" fill="url(#linear-gradient)"/>
    <path id="Tracé_1351" data-name="Tracé 1351" d="M120.609,43.025c.774-.233.293-.542-.271-.542-.406,2.026.271,1.59.271.542.54-.163,0,.271,0,0" transform="translate(2653.171 2716.469)" fill="url(#linear-gradient)"/>
    <path id="Tracé_1352" data-name="Tracé 1352" d="M120.281,44.2c.251,0,0-1.068,0,0,.09,0,0-.09,0,0" transform="translate(2653.229 2717.457)" fill="url(#linear-gradient)"/>
    <path id="Tracé_1353" data-name="Tracé 1353" d="M97.4,45.746c0-1.405-1.066.355,0,0,0-.09-.581.194,0,0" transform="translate(2634.669 2718.622)" fill="url(#linear-gradient)"/>
    <path id="Tracé_1354" data-name="Tracé 1354" d="M130.139,48.806c0-.51-1.01-.287,0,0,0-.09-.544-.156,0,0" transform="translate(2660.705 2721.251)" fill="url(#linear-gradient)"/>
    <path id="Tracé_1355" data-name="Tracé 1355" d="M116.81,56.367c0,2.028.926,0,0,0,0,.271.09,0,0,0" transform="translate(2650.47 2727.501)" fill="url(#linear-gradient)"/>
    <path id="Tracé_1356" data-name="Tracé 1356" d="M121.639,58.933c0,1.938.931,0,0,0,0,.271.09,0,0,0" transform="translate(2654.308 2729.54)" fill="url(#linear-gradient)"/>
    <path id="Tracé_1357" data-name="Tracé 1357" d="M117.776,61.255c0-.887-.312-.312,0,0,0-.09-.309-.309,0,0" transform="translate(2651.128 2731.01)" fill="url(#linear-gradient)"/>
    <path id="Tracé_1358" data-name="Tracé 1358" d="M121.488,61.8c0,.992.45.45,0,0,0,.181.309.309,0,0" transform="translate(2654.188 2731.819)" fill="url(#linear-gradient)"/>
    <path id="Tracé_1359" data-name="Tracé 1359" d="M96.736,63.276c0-1.143-1.525-.386,0,0,0-.181-.648-.163,0,0" transform="translate(2633.98 2732.51)" fill="url(#linear-gradient)"/>
    <path id="Tracé_1360" data-name="Tracé 1360" d="M97.577,65.144c-.571-2.249-.779-.271-1.9-.271,0,.391,1.513.239,1.9.271-.167-.657-1.21-.1,0,0" transform="translate(2633.681 2733.622)" fill="url(#linear-gradient)"/>
    <path id="Tracé_1361" data-name="Tracé 1361" d="M96.274,88.956c.969,0,2.7,2.231,3.25,2.437,1.944.727,6.768-1.149,2.708-1.353,0-.429,1.281-2.168,2.168-2.168-.42.818-1.92-4.957-1.918-4.917-.09-1.793,1.346-3.864,1.782-5.781.651-2.857-.029-5.87.948-8.8-2.469,0-1.556-1.333-1.624-3.25-1.716.481-1.5,2.473-2.979,2.845s-2.606-1.49-3.25-1.49c-.42,2.1-3.55,8.4.542,8.4.47-2.355-.646-.354-1.084-2.979a9.7,9.7,0,0,1,4.063,1.9C99,74.73,99.8,75.162,99.8,76.768c.675,0-.161-1.317,1.355.271,1.533,0-4.051,4.314-2.981,2.843C96.9,81.632,97.7,81.1,96,81.1c.852,1.468,3.79,6.052,0,4.063-.517,1.5-.6,3.4.271,3.792-.09,0,.511.233,0,0" transform="translate(2633.629 2734.458)" fill="url(#linear-gradient)"/>
    <path id="Tracé_1362" data-name="Tracé 1362" d="M96.184,66.328c-1.019,0,0,2.71,0,0-.09,0,0,.361,0,0" transform="translate(2633.72 2735.417)" fill="url(#linear-gradient)"/>
    <path id="Tracé_1363" data-name="Tracé 1363" d="M107,67.083c0,.992.45.45,0,0,0,.181.309.309,0,0" transform="translate(2642.675 2736.017)" fill="url(#linear-gradient)"/>
    <path id="Tracé_1364" data-name="Tracé 1364" d="M115.452,68.894c0,1.159.9,0,0,0,0,.181.09,0,0,0" transform="translate(2649.391 2737.456)" fill="url(#linear-gradient)"/>
    <path id="Tracé_1365" data-name="Tracé 1365" d="M108.509,88.124c5,0,5.554-1.2,9.808-.569,3.914.576,6.7,1.036,6.985-4.847-1.981,0-1.355-2.523-2.166-4.334,2.213-1.107,1.213-.813,2.437-.813-.449-1.348-.043-.872,1.084-.813,0-1.409-2.168-2.387-2.168-3.79,1.156-.526,1.762.129,2.168-1.084-1.583-.443-2.209-2.281-4.063-2.979,0,4.8-2.755.145-3.658,1.082-1.762,1.834-1.389,3.625-2.03,5.96.052-.192-1.626,6.032-1.626,5.416,4.291-1.639.59,0,1.9,0-1.2,4.727-8.666,2.895-8.666,6.771.09,0,0-.271,0,0" transform="translate(2643.874 2737.456)" fill="url(#linear-gradient)"/>
    <path id="Tracé_1366" data-name="Tracé 1366" d="M103.68,70.252c0,.614,1.972,0,0,0,0,.09.271,0,0,0" transform="translate(2640.036 2738.535)" fill="url(#linear-gradient)"/>
    <path id="Tracé_1367" data-name="Tracé 1367" d="M132.471,70.784c-2.123-.709,0,1,0,0-.271-.09,0,.09,0,0" transform="translate(2662.165 2738.816)" fill="url(#linear-gradient)"/>
    <path id="Tracé_1368" data-name="Tracé 1368" d="M110.435,73.6c.637,0,.813-1.744.813-2.437q-1.6.579-.813,2.437c.181,0,0-.632,0,0" transform="translate(2645.198 2739.255)" fill="url(#linear-gradient)"/>
    <path id="Tracé_1369" data-name="Tracé 1369" d="M102.02,71.309c0,2.028.926,0,0,0,0,.271.09,0,0,0" transform="translate(2638.717 2739.375)" fill="url(#linear-gradient)"/>
    <path id="Tracé_1370" data-name="Tracé 1370" d="M111.1,71.912c-.135,2.575,0,.029,0,1.626a.991.991,0,0,0,0-1.626c-.031.581.538.477,0,0" transform="translate(2645.886 2739.854)" fill="url(#linear-gradient)"/>
    <path id="Tracé_1371" data-name="Tracé 1371" d="M112.584,72.063c0,1.454.867,0,0,0,0,.09.09,0,0,0" transform="translate(2647.112 2739.974)" fill="url(#linear-gradient)"/>
    <path id="Tracé_1372" data-name="Tracé 1372" d="M131.6,73.147q1.354.406.813-1.084c-.361,0-.7.653-.813,1.084.271,0,.165-.648,0,0" transform="translate(2662.223 2739.974)" fill="url(#linear-gradient)"/>
    <path id="Tracé_1373" data-name="Tracé 1373" d="M96.06,72.747c-.569,0-.793-.407,0,0-.09,0,.5.257,0,0" transform="translate(2633.573 2740.374)" fill="url(#linear-gradient)"/>
    <path id="Tracé_1374" data-name="Tracé 1374" d="M97.643,72.969c0,.992.45.45,0,0,0,.181.309.309,0,0" transform="translate(2635.239 2740.694)" fill="url(#linear-gradient)"/>
    <path id="Tracé_1375" data-name="Tracé 1375" d="M95.681,74.084c.251,0,0-1.068,0,0,.09,0,0-.09,0,0" transform="translate(2633.68 2741.203)" fill="url(#linear-gradient)"/>
    <path id="Tracé_1376" data-name="Tracé 1376" d="M106.263,73.723c-.147.9.122,1.258.813,1.084-.174-.52-.364-1.084-.813-1.084.09.361.09,0,0,0" transform="translate(2642.058 2741.293)" fill="url(#linear-gradient)"/>
    <path id="Tracé_1377" data-name="Tracé 1377" d="M119.442,74.179c-1.872,0,0-.782,0,0-.09,0,0,.09,0,0" transform="translate(2651.901 2741.379)" fill="url(#linear-gradient)"/>
    <path id="Tracé_1378" data-name="Tracé 1378" d="M104.066,74.958c-1.077,0-1.368.542-1.9.542.476,1.43,2.364,1.624,3.521,1.624,0-.951.26-.018-.271-1.082q.662-.03.54-.542c1.066,0,2.71,1.827,2.71-.542-1.816,0-1.9,1.287-1.9-.813q-2.84-.813-2.708.813c-.45,0,0-.09,0,0" transform="translate(2638.837 2741.413)" fill="url(#linear-gradient)"/>
    <path id="Tracé_1379" data-name="Tracé 1379" d="M108.509,74.176c0,2.03.926,0,0,0,0,.271.09,0,0,0" transform="translate(2643.874 2741.653)" fill="url(#linear-gradient)"/>
    <path id="Tracé_1380" data-name="Tracé 1380" d="M106.548,74.779c.965,1.45,1.777.271,2.706.271-.258-.951-1.613-.583-2.706-.271.179.271.542-.156,0,0" transform="translate(2642.315 2741.863)" fill="url(#linear-gradient)"/>
    <path id="Tracé_1381" data-name="Tracé 1381" d="M110.437,75.051c1.032,0-.991-.224-1.355-.271.092.271,0,.361-.271.271.239.5,1.626.7,1.626,0,.09,0,0,.09,0,0" transform="translate(2644.114 2742.133)" fill="url(#linear-gradient)"/>
    <path id="Tracé_1382" data-name="Tracé 1382" d="M108.509,75.922c.614,0,0-1.972,0,0,.09,0,0-.271,0,0" transform="translate(2643.874 2742.344)" fill="url(#linear-gradient)"/>
    <path id="Tracé_1383" data-name="Tracé 1383" d="M110.812,76.609c-.2,0,0,.129,0,0-.09,0,0-.09,0,0" transform="translate(2645.634 2743.555)" fill="url(#linear-gradient)"/>
    <path id="Tracé_1384" data-name="Tracé 1384" d="M108.962,77.317q.21,1.026,1.355.542c0-.7-.233-1.131-1.355-.542.09.181.488-.255,0,0" transform="translate(2644.234 2743.928)" fill="url(#linear-gradient)"/>
    <path id="Tracé_1385" data-name="Tracé 1385" d="M127.421,77.329c0-.51-1.009-.287,0,0,0-.09-.544-.156,0,0" transform="translate(2658.546 2743.917)" fill="url(#linear-gradient)"/>
    <path id="Tracé_1386" data-name="Tracé 1386" d="M103.224,78.691c.6,0,1.6,1.075,2.437,1.355,1.15-3.2-3.792-3.141-3.792-1.9.271.289,1.355-1.247,1.355.542.181,0,0-.271,0,0" transform="translate(2638.597 2744.181)" fill="url(#linear-gradient)"/>
    <path id="Tracé_1387" data-name="Tracé 1387" d="M126.016,77.521c.2,0,0-.129,0,0,.09,0,0,.09,0,0" transform="translate(2657.786 2744.266)" fill="url(#linear-gradient)"/>
    <path id="Tracé_1388" data-name="Tracé 1388" d="M118.95,77.5q-.988,1.486,0,1.355c0,.309-.876.54-1.084.54,0,1.064,1.84,0,2.168,0-.6-.761-.07-1.079-1.084-1.9-.086.228.578.465,0,0" transform="translate(2651.309 2744.291)" fill="url(#linear-gradient)"/>
    <path id="Tracé_1389" data-name="Tracé 1389" d="M127.073,78.331c.687,0,.646-1.944,0,0,.088,0,.088-.271,0,0" transform="translate(2658.626 2744.269)" fill="url(#linear-gradient)"/>
    <path id="Tracé_1390" data-name="Tracé 1390" d="M120.577,124.9c-2.679,2.145-.542.5-.542,2.437,1.181,0,1.059-1.687.813-2.437,1.231,0,3.241,2.1,4.2,2.166.637.048,4.469-1.775,4.469-1.624q.937-.132.542,1.353c.892-.445,2.8-2.166,3.521-2.166-.09.271,0,.361.271.271-1.192,2.236-2.626,2.979-3.792,4.063a5.489,5.489,0,0,0-2.708,1.9c.057-.088-1.4,3.383-.542,2.574-3.448,3.248-4.063,1.019-4.063,7.177,1.093-.655,2.71-2.2,2.71-3.521a3.33,3.33,0,0,1,2.437.813c2.518-7.545-.233,1.827-.542,1.355.781,0,1.079,1.624,1.9,1.624,1.332-3.482.388-.542,1.9-.542.135-2.575,0-.029,0-1.624,5.16,1.728,2.177-8.76,3.25-10.292.282-.4,3.166.436,4.605-1.355-.258.321-.271-3.119-.271-3.25-.519,0-1.084,1.134-1.084,1.626-3.844,0,0-6.658,0-6.771.788,0,.059.813,1.355.813-.747-1.149-4.219-.583-5.147-2.168-1.219-2.08-.226-6.188,3.25-6.5,0-.863-2.166-2.119-2.166-3.521-.926,0-1.459,2.2-2.3,1.626-.669-.458-1.509-2.7-3.116-1.9.269-1.344,1.308-2.024.813-.54,1.4-.468.813-.761.813-1.626,1.9,0,5.536,1.5,6.771.271,2.559-2.545-.657-3.792-2.708-3.792.384-1.152.933-.716.542-1.9a2.938,2.938,0,0,1,1.353,1.082c.294-.881.967-.847,1.9-1.082a.846.846,0,0,1,0-1.084c-4.083-1.558-.016-6.346-.542-8.937-.262-1.285-1.542-1.472-1.531-3.342.007-1.005.989-2.263.989-2.889-1.865.562-2.073-1.461-1.355-2.708-1.714-.571-3.79,1.084-5.145,1.084,1.71-6.538-2.527-2.362-6.229-2.979q-.393,1.486.54,1.353c-2.337,2.111,1.152,3.453,1.9,5.689-4.015,0-3.832,7.938.542,8.666a50.7,50.7,0,0,1-2.979,5.418c0,2.495,1.9-.232,1.9,1.9-2.051,0-2.346-.271-3.792-.271.547,1.92,5.244,8.126,2.708,8.126.5.842.264,4.472,1.626,3.792,0,1.823-2.125,2.708-2.3,4.874-.239,2.915,1.49,2.836,1.49,4.876a14.1,14.1,0,0,0-3.792-.271c0,2.067-2.437,1.7-2.437,2.166-.45.361,0-.09,0,0" transform="translate(2652.391 2744.558)" fill="url(#linear-gradient)"/>
    <path id="Tracé_1391" data-name="Tracé 1391" d="M104.586,78.7c0,.887.31.312,0,0,0,.09.307.309,0,0" transform="translate(2640.756 2745.251)" fill="url(#linear-gradient)"/>
    <path id="Tracé_1392" data-name="Tracé 1392" d="M96.614,79.811c.3-.987.79-.915-1.084-.542q0,1.354,1.084.542c.163-.54-.271.09,0,0" transform="translate(2633.56 2745.498)" fill="url(#linear-gradient)"/>
    <path id="Tracé_1393" data-name="Tracé 1393" d="M116.206,79.911c0,.887.312.312,0,0,0,.09.309.309,0,0" transform="translate(2649.99 2746.21)" fill="url(#linear-gradient)"/>
    <path id="Tracé_1394" data-name="Tracé 1394" d="M121.488,80.062c0,.992.45.45,0,0,0,.181.309.309,0,0" transform="translate(2654.188 2746.33)" fill="url(#linear-gradient)"/>
    <path id="Tracé_1395" data-name="Tracé 1395" d="M117.869,80.364c-1.05.316-.6.127-.542,1.355q.934.132.542-1.355c-.54.163-.022.712,0,0" transform="translate(2650.766 2746.57)" fill="url(#linear-gradient)"/>
    <path id="Tracé_1396" data-name="Tracé 1396" d="M118.481,81.039c0-.9-1.592-.4,0,0,0-.09-.648-.165,0,0" transform="translate(2651.236 2746.706)" fill="url(#linear-gradient)"/>
    <path id="Tracé_1397" data-name="Tracé 1397" d="M125.348,86.955c-.6,0-4.334.562-4.334-1.082,4.993.736.407-.271,1.9-.271,0-.194-1.671-2.984-1.9-4.332-1.26,0,.269.538-1.353.538.675,2.03,1.951,5.147-1.626,5.147,0-1.766,1.084-1.845,1.084-4.063-1.689.845-7.042,5.395-7.042,7.584,1.405-.352,2.836-1.254,3.25.815q-.813-.272-.542.542c.083,0-6.945.592-2.437,1.624,0-2.888-.271-.6-.271-1.624-.54,0,3.25,2.785,3.25,2.979.919,0,1.9-2.374,2.166-2.441.763-.187.791-1.219,1.761-1.624,1.529-.635.513,1.9,2.032,1.9,0-.425.526-1.624.813-1.624q-.121.635.542,0c0,.653-.937.533-.339,1.152.379.389,1.669-1.753,2.776-1.694a21.345,21.345,0,0,0-1.084-2.708c.271.09.363,0,.271-.271a1.7,1.7,0,0,1,1.084.813c0-.777,1.165.486,0-1.355-.09,0,.113.179,0,0" transform="translate(2645.724 2747.29)" fill="url(#linear-gradient)"/>
    <path id="Tracé_1398" data-name="Tracé 1398" d="M131,81.84c.251,0,.37-.6,0,0-.09,0,.219-.355,0,0" transform="translate(2661.736 2747.532)" fill="url(#linear-gradient)"/>
    <path id="Tracé_1399" data-name="Tracé 1399" d="M99.771,81.571c-1.612.486,0,1.244,0,0-.54.163,0,.181,0,0" transform="translate(2636.361 2747.53)" fill="url(#linear-gradient)"/>
    <path id="Tracé_1400" data-name="Tracé 1400" d="M99.8,82.8q-1.219-.272-.542,1.355c.587,0-.045.269.542.269V82.8c-.181,0,0,.542,0,0" transform="translate(2636.331 2748.471)" fill="url(#linear-gradient)"/>
    <path id="Tracé_1401" data-name="Tracé 1401" d="M95.53,83.08c0,.992.45.45,0,0,0,.181.309.309,0,0" transform="translate(2633.56 2748.729)" fill="url(#linear-gradient)"/>
    <path id="Tracé_1402" data-name="Tracé 1402" d="M99.694,85.218c0-.8.115-1.47-.542-.813.54,0-.251.813.542.813,0-.361-.09,0,0,0" transform="translate(2636.438 2749.57)" fill="url(#linear-gradient)"/>
    <path id="Tracé_1403" data-name="Tracé 1403" d="M127.7,132.072c1.917-2.419,2.861-3.74,5.958-2.708-.09-.271,0-.361.271-.271-.583-1.75-1.628-.009-2.166-1.626,3.541.122,2.473-1.141,2.166-3.25-.939,0-2.871,1.68-4.334,2.168.709-2.127-2.218-2.094-3.25-2.439,0-1.254,1.651-.3,2.979-.54a17.2,17.2,0,0,1-1.9-3.792q.406.135.271-.271c.678,0,2.726,1.084,4.334,1.084-.337-2.791-2.121-.558-2.979-.271,0-5.093-6.5-1.389-6.5-5.418,2.017,0,1.9-1.053,1.9-2.708.357.179,2.019-.271,2.708-.271.025,1.63,0,1.477,0,2.979,1.36,0,3.338-4.6,4.063-4.6,0,3.166,1.615.948,1.289-.084-.343-1.088-1.206-1.366-1.831-3.437.179.594-1.834-2.99-1.24-1.884-.109-.2-1.071-3.591-3.094-4.076,0,4.8-13.5,10.353-12.864,4.876.007-.061,8.636-3.25,8.261-3.25,0-.309-1.355-2.721-1.355-4.334.725,0,.1.813,1.084.813q-.272-.813.542-.542c0-.339-1.211-1.156-1.084-1.353,0,4.128-9.553-1.355-8.666-1.355a.962.962,0,0,0,.269-.813c.533,0,1.355,1.082.813-.542a5.088,5.088,0,0,0,4.605-2.979c-3.7,0-.174-4.354-4.007-3.232-2.028.594-2.288,4.858-4.661,4.858,0-2.249.921-5.644-2.437-7.313-5.325-2.647-2.312,3.347-2.437,5.416-.025.411-1.565,3.444-1.626,4.605-.158,3.017,1.673-.111,1.626,1.624.011-.379-.266,3.487-.542,1.626.223,1.5-.271,5.143-.271,6.771a2.175,2.175,0,0,1,1.9,2.437c-1.551,0-.542-.445-.542-1.082a7.778,7.778,0,0,1-2.168.54c1.5,2.83,7.078,4.271,8.126,5.96,2.678,4.305-.047,7.071-4.605,5.687,0,2.385.271,3.435.271,5.145,4.957-.122,3.157-3.306,4.605,1.626.258.883,2.107,7.042-1.355,7.042q.552.942,1.084,1.9c1.141,0-1.54,6.755-1.355,7.313a6.13,6.13,0,0,1-1.624-.271c.188,2.877,0,.206,0,1.355,2.642.881,2.141,1.082,4.6,1.082-.384.782.124.666.542,1.084,1.5-1.24,5.558-.933,4.605-3.792,1.3.327,1.647-1.376,2.437-2.166.7,2.1.616,2.166,2.708,2.166,0-1.186-.038-1.353,1.084-1.353a8.951,8.951,0,0,1-.271,4.6c1.6,0,2.437-3.587,2.437-4.874-.94.6-.847.551-1.9,0,0-1.007.827-.648,1.355-1.355-1.843-.614,1.2-5.282,2.166-6.5" transform="translate(2639.312 2750.114)" fill="url(#linear-gradient)"/>
    <path id="Tracé_1404" data-name="Tracé 1404" d="M119.376,85.421c1.542-.465,0-.879,0,0,.54-.163,0-.181,0,0" transform="translate(2652.509 2750.18)" fill="url(#linear-gradient)"/>
    <path id="Tracé_1405" data-name="Tracé 1405" d="M99.314,86.938c1.412-.425.154-.732.542-1.9q-1.483.444-.542,1.9c.54-.163-.09-.452,0,0" transform="translate(2636.277 2750.289)" fill="url(#linear-gradient)"/>
    <path id="Tracé_1406" data-name="Tracé 1406" d="M98.509,93.864c.766.382,3.151,9.149,2.979,10.427-.384,2.843-5.118,7.179-.542,7.179-.391,1.438-.87,2.145,1.355,2.437a52,52,0,0,0,1.084-5.416c.074-.948-.565-3.268-.542-4.063-.034,1.22.784-6.951-.271-4.334.908-2.256,2.364-1.425,2.437-3.792.039-1.278-2.032-4.641-1.084-4.6-.192-2.459-1.122-2.846-1.353-5.147-.345,0-4.334,4.077-4.334,0-.7,0-2.708,5.68-2.708,6.771,1.949-.167,2.154-1.1,2.979.542.181.09-.106-.212,0,0" transform="translate(2633.56 2751.487)" fill="url(#linear-gradient)"/>
    <path id="Tracé_1407" data-name="Tracé 1407" d="M102.844,86.853q-1.306,2.434.813,1.9c0-1.622-.029-1.111-.813-1.9-.192.5.309.309,0,0" transform="translate(2638.977 2751.727)" fill="url(#linear-gradient)"/>
    <path id="Tracé_1408" data-name="Tracé 1408" d="M118.311,92.216c.147.093,1.084,1.109,1.084.271-.294,0-.957-1.394-2.439-1.355.429-.854,1.9-1.267,1.9-1.624-2.1,0-.337-.215-1.9-.542a22.564,22.564,0,0,0-1.353,3.521q2.03.948,1.9-.271c.553.21.431,1.507.813,0,.352.223-.165.648,0,0" transform="translate(2649.511 2753.406)" fill="url(#linear-gradient)"/>
    <path id="Tracé_1409" data-name="Tracé 1409" d="M115.658,90.475q-.3-1.459-1.355-1.355c0,1.577-.91,1.222-.808,2.06.138,1.145,1.646-.641,2.163-.705-.361-.452-.763.1,0,0" transform="translate(2647.83 2753.523)" fill="url(#linear-gradient)"/>
    <path id="Tracé_1410" data-name="Tracé 1410" d="M95.53,89.419c.456.449.987,0,0,0,.307.3.181,0,0,0" transform="translate(2633.56 2753.766)" fill="url(#linear-gradient)"/>
    <path id="Tracé_1411" data-name="Tracé 1411" d="M111.175,89.419c-1.276,0,0,1.276,0,0-.181,0,0,.181,0,0" transform="translate(2645.542 2753.766)" fill="url(#linear-gradient)"/>
    <path id="Tracé_1412" data-name="Tracé 1412" d="M114.093,90.475c.456.449.987,0,0,0,.307.3.181,0,0,0" transform="translate(2648.311 2754.605)" fill="url(#linear-gradient)"/>
    <path id="Tracé_1413" data-name="Tracé 1413" d="M115.236,90.626c-1.972,0,0,.614,0,0-.271,0,0,.09,0,0" transform="translate(2648.523 2754.725)" fill="url(#linear-gradient)"/>
    <path id="Tracé_1414" data-name="Tracé 1414" d="M110.622,91.565c1.025,0,0-1.7,0,0,.09,0,0-.271,0,0" transform="translate(2645.553 2754.87)" fill="url(#linear-gradient)"/>
    <path id="Tracé_1415" data-name="Tracé 1415" d="M114.375,91.23q-.87,1.327.813.813c0-1.364-.034-.424-.813-.813-.09.271.181.09,0,0" transform="translate(2648.3 2755.205)" fill="url(#linear-gradient)"/>
    <path id="Tracé_1416" data-name="Tracé 1416" d="M111.679,92.212c1.269,0,0-1.926,0,0,.181,0,0-.269,0,0" transform="translate(2646.393 2755.305)" fill="url(#linear-gradient)"/>
    <path id="Tracé_1417" data-name="Tracé 1417" d="M96.983,93.042q.678-1.489-.271-1.355-.676,1.491.271,1.355c0-.452-.09,0,0,0" transform="translate(2634.275 2755.559)" fill="url(#linear-gradient)"/>
    <path id="Tracé_1418" data-name="Tracé 1418" d="M119.413,91.881c-1.723-.517,0,1.028,0,0-.54-.162,0,.183,0,0" transform="translate(2651.93 2755.636)" fill="url(#linear-gradient)"/>
    <path id="Tracé_1419" data-name="Tracé 1419" d="M96.254,92.89c-.612,0,0,1.972,0,0-.09,0,0,.271,0,0" transform="translate(2633.92 2756.524)" fill="url(#linear-gradient)"/>
    <path id="Tracé_1420" data-name="Tracé 1420" d="M129.822,94.013c.564-1.87-1.168,0,0,0,.163-.54-.09,0,0,0" transform="translate(2660.48 2756.756)" fill="url(#linear-gradient)"/>
    <path id="Tracé_1421" data-name="Tracé 1421" d="M96.9,94.924c0-.9-1.592-.4,0,0,0-.09-.648-.165,0,0" transform="translate(2634.087 2757.74)" fill="url(#linear-gradient)"/>
    <path id="Tracé_1422" data-name="Tracé 1422" d="M100.713,94.55q-.393,1.486.542,1.355c0-.594,1.508-.185-.542-1.355.09.452.535.305,0,0" transform="translate(2637.587 2757.843)" fill="url(#linear-gradient)"/>
    <path id="Tracé_1423" data-name="Tracé 1423" d="M120.532,94.55c-1.276,0,0,1.276,0,0-.181,0,0,.181,0,0" transform="translate(2652.977 2757.843)" fill="url(#linear-gradient)"/>
    <path id="Tracé_1424" data-name="Tracé 1424" d="M100.305,96.978c3.054,0-1.034-1.6,0,0,.09,0-.531-.824,0,0" transform="translate(2637.182 2759.207)" fill="url(#linear-gradient)"/>
    <path id="Tracé_1425" data-name="Tracé 1425" d="M118.772,96.437c.474,0,0-1.156,0,0,.09,0,0-.181,0,0" transform="translate(2652.029 2758.935)" fill="url(#linear-gradient)"/>
    <path id="Tracé_1426" data-name="Tracé 1426" d="M101.464,97.251c0-.51-1.009-.289,0,0,0-.09-.544-.156,0,0" transform="translate(2637.919 2759.747)" fill="url(#linear-gradient)"/>
    <path id="Tracé_1427" data-name="Tracé 1427" d="M100.36,98.172c0,1.125,1.744,0,0,0,0,.181.271,0,0,0" transform="translate(2637.398 2760.721)" fill="url(#linear-gradient)"/>
    <path id="Tracé_1428" data-name="Tracé 1428" d="M101.814,98.323c-2.021.608,0,.748,0,0-.54.163,0,.181,0,0" transform="translate(2637.84 2760.841)" fill="url(#linear-gradient)"/>
    <path id="Tracé_1429" data-name="Tracé 1429" d="M120.885,99.678a9.317,9.317,0,0,0,2.437.271c0-2.48-1.082-.641-1.082-1.626a2.048,2.048,0,0,1-1.355,1.355c0,.09,1.222-.321,0,0" transform="translate(2653.708 2760.841)" fill="url(#linear-gradient)"/>
    <path id="Tracé_1430" data-name="Tracé 1430" d="M97.495,99.3q.264-1.034-1.084-.813c.276,1.1-1.113,5.8.542,6.229.181-.858,1.608-4.883.542-5.416,0-.181.181.09,0,0" transform="translate(2634.034 2760.944)" fill="url(#linear-gradient)"/>
    <path id="Tracé_1431" data-name="Tracé 1431" d="M104.362,99.709c0-.748-.574-.572-1.084-1.084-.393,1.181.285,1.084,1.084,1.084,0-.181-.09,0,0,0" transform="translate(2639.625 2761.082)" fill="url(#linear-gradient)"/>
    <path id="Tracé_1432" data-name="Tracé 1432" d="M120.3,99.85c.562,0,1.084-.02,1.084-.542q-1.354-.541-1.084.542c.271,0,0-.181,0,0" transform="translate(2653.208 2761.481)" fill="url(#linear-gradient)"/>
    <path id="Tracé_1433" data-name="Tracé 1433" d="M100.813,100.765c.556.551,1.082-.511,1.082-1.084-1.061.707-.508.508-1.082,1.084.305.3.307-.309,0,0" transform="translate(2637.758 2761.921)" fill="url(#linear-gradient)"/>
    <path id="Tracé_1434" data-name="Tracé 1434" d="M105.17,100.491c-1.436,0,0,.809,0,2.166a7.58,7.58,0,0,0,1.355-1.9q-1.481-1.322-1.355-.271c-.271,0,0-.09,0,0" transform="translate(2640.713 2762.195)" fill="url(#linear-gradient)"/>
    <path id="Tracé_1435" data-name="Tracé 1435" d="M119.828,100.134c0,1.159.9,0,0,0,0,.181.09,0,0,0" transform="translate(2652.868 2762.281)" fill="url(#linear-gradient)"/>
    <path id="Tracé_1436" data-name="Tracé 1436" d="M121.79,101.053c.454.506.16.526.813.271.228-.463-.6-.244-.813-.271" transform="translate(2654.427 2762.988)" fill="url(#linear-gradient)"/>
    <path id="Tracé_1437" data-name="Tracé 1437" d="M99.91,101.194q-.813,1.761.271,1.626.813-1.758-.271-1.626c0,.542.09,0,0,0" transform="translate(2636.764 2763.115)" fill="url(#linear-gradient)"/>
    <path id="Tracé_1438" data-name="Tracé 1438" d="M104.856,104.351c0,.883-.858-2.617-.813-2.708-.949,0-.813,1.61-.813,2.437,1.978-.756.985-.37,1.626.271,0,.09-.309-.309,0,0" transform="translate(2639.674 2763.48)" fill="url(#linear-gradient)"/>
    <path id="Tracé_1439" data-name="Tracé 1439" d="M97.643,101.795c0-.135.824,6.064.542,6.229a47.048,47.048,0,0,1,2.437,4.334,10.263,10.263,0,0,1,1.222-5.156c.045-.115,2.827-.8.4-.8q2.673.153,2.166-1.9c-2.274-.075-4.551-2.708-6.771-2.708,0,.09.09,0,0,0" transform="translate(2635.239 2763.599)" fill="url(#linear-gradient)"/>
    <path id="Tracé_1440" data-name="Tracé 1440" d="M106.362,104.773c.711-1.423-.127-2.163-1.355-2.979.092.271,0,.361-.271.271.431,1.692-.133,2.708,1.626,2.708.09-.181-.09,0,0,0" transform="translate(2640.875 2763.6)" fill="url(#linear-gradient)"/>
    <path id="Tracé_1441" data-name="Tracé 1441" d="M102.482,102.784c0-1.737-1.583-.415,0,0,0-.271-.748-.2,0,0" transform="translate(2638.526 2763.693)" fill="url(#linear-gradient)"/>
    <path id="Tracé_1442" data-name="Tracé 1442" d="M107.379,102.247c-1.158,0,0,.476,0,0-.181,0,0,.09,0,0" transform="translate(2642.567 2763.959)" fill="url(#linear-gradient)"/>
    <path id="Tracé_1443" data-name="Tracé 1443" d="M118.491,102.516c-.9,0-.038,1.084.542,1.084,0-.836.21-1.836-.542-1.084-.09,0,.309-.309,0,0" transform="translate(2651.497 2763.962)" fill="url(#linear-gradient)"/>
    <path id="Tracé_1444" data-name="Tracé 1444" d="M97.244,103c-1.041,0,0,2.033,0,0-.09,0,0,.271,0,0" transform="translate(2634.554 2764.559)" fill="url(#linear-gradient)"/>
    <path id="Tracé_1445" data-name="Tracé 1445" d="M118.454,105.613c-.3-1-.5,0,0,0-.163-.54-.09,0,0,0" transform="translate(2651.534 2766.28)" fill="url(#linear-gradient)"/>
    <path id="Tracé_1446" data-name="Tracé 1446" d="M124.054,105.567c0,.992.45.45,0,0,0,.181.309.309,0,0" transform="translate(2656.227 2766.598)" fill="url(#linear-gradient)"/>
    <path id="Tracé_1447" data-name="Tracé 1447" d="M121.941,106.171c0,.992.45.45,0,0,0,.181.309.309,0,0" transform="translate(2654.548 2767.078)" fill="url(#linear-gradient)"/>
    <path id="Tracé_1448" data-name="Tracé 1448" d="M129.789,106.925c0,1.825.978,0,0,0,0,.271.181,0,0,0" transform="translate(2660.784 2767.677)" fill="url(#linear-gradient)"/>
    <path id="Tracé_1449" data-name="Tracé 1449" d="M129.483,107.748q.132-.988-1.355,0c0,1.105.623,0,1.355,0,0-.09-.09,0,0,0" transform="translate(2659.464 2767.938)" fill="url(#linear-gradient)"/>
    <path id="Tracé_1450" data-name="Tracé 1450" d="M98.164,108.651q1.2.03.813-1.084-1.354-.406-.813,1.084c.271-.09,0-.361,0,0" transform="translate(2635.531 2768.118)" fill="url(#linear-gradient)"/>
    <path id="Tracé_1451" data-name="Tracé 1451" d="M99.379,109.34c-1.156,0,0,.476,0,0-.181,0,0,.09,0,0" transform="translate(2636.211 2769.596)" fill="url(#linear-gradient)"/>
    <path id="Tracé_1452" data-name="Tracé 1452" d="M102.073,110.517c-1.868,0,.45-.271-2.166-.271.253.508,2.166,1.35,2.166.271-.271,0,0,.271,0,0" transform="translate(2637.038 2770.316)" fill="url(#linear-gradient)"/>
    <path id="Tracé_1453" data-name="Tracé 1453" d="M128.607,110.436c0-.2-.129,0,0,0,0-.09.09,0,0,0" transform="translate(2659.799 2770.397)" fill="url(#linear-gradient)"/>
    <path id="Tracé_1454" data-name="Tracé 1454" d="M105.869,110.548c-1.156,0,0,.476,0,0-.181,0,0,.09,0,0" transform="translate(2641.368 2770.556)" fill="url(#linear-gradient)"/>
    <path id="Tracé_1455" data-name="Tracé 1455" d="M98.3,111.24c.775-.233,1.048-.486-.813-.542,0,.894.813,1.158.813.542.54-.163,0,.09,0,0" transform="translate(2635.119 2770.675)" fill="url(#linear-gradient)"/>
    <path id="Tracé_1456" data-name="Tracé 1456" d="M127.978,112.625c.44,0,1.848-.971.542-1.624-.255.935-.542.5-.542,1.624.09,0,0-.271,0,0" transform="translate(2659.345 2770.916)" fill="url(#linear-gradient)"/>
    <path id="Tracé_1457" data-name="Tracé 1457" d="M119.225,111.3c0,1.007.415.415,0,0,0,.09.309.309,0,0" transform="translate(2652.389 2771.155)" fill="url(#linear-gradient)"/>
    <path id="Tracé_1458" data-name="Tracé 1458" d="M120.432,111.453c0,1.014,1.516,0,0,0,0,.271.09,0,0,0" transform="translate(2653.348 2771.275)" fill="url(#linear-gradient)"/>
    <path id="Tracé_1459" data-name="Tracé 1459" d="M99,111.982c.474,0,0-1.156,0,0,.088,0,0-.181,0,0" transform="translate(2636.319 2771.288)" fill="url(#linear-gradient)"/>
    <path id="Tracé_1460" data-name="Tracé 1460" d="M121.72,113.619c.738-.747-.352-1.107-.542-2.166-1.323,0-1.158,1.624-2.708,1.624a2.084,2.084,0,0,0,3.25.542c.3-.307-.336.307,0,0" transform="translate(2651.789 2771.275)" fill="url(#linear-gradient)"/>
    <path id="Tracé_1461" data-name="Tracé 1461" d="M116.837,114.583a4.109,4.109,0,0,1,2.708-.542c-1.71-2.929-1.244-.011-1.624-2.437-1.184,0-.556,1.055-2.168,1.084a2.078,2.078,0,0,1,1.084,1.9c.59-.328-.083-1.644,0,0" transform="translate(2649.63 2771.395)" fill="url(#linear-gradient)"/>
    <path id="Tracé_1462" data-name="Tracé 1462" d="M118.017,112.888c1.269,0,0-1.926,0,0,.181,0,0-.271,0,0" transform="translate(2651.429 2771.735)" fill="url(#linear-gradient)"/>
    <path id="Tracé_1463" data-name="Tracé 1463" d="M106.242,113.983c1.662,0-.336-1.624-1.355-1.624,0,1.348,2.157,3.747,1.355,1.624.181,0,.156.415,0,0" transform="translate(2640.996 2771.995)" fill="url(#linear-gradient)"/>
    <path id="Tracé_1464" data-name="Tracé 1464" d="M100.813,113.038c.472,0,0-1.156,0,0,.088,0,0-.181,0,0" transform="translate(2637.758 2772.127)" fill="url(#linear-gradient)"/>
    <path id="Tracé_1465" data-name="Tracé 1465" d="M124.96,112.811c0,.992.45.45,0,0,0,.181.309.309,0,0" transform="translate(2656.947 2772.354)" fill="url(#linear-gradient)"/>
    <path id="Tracé_1466" data-name="Tracé 1466" d="M127.988,120.158c.341-1.023,2.529-3.071,3.521-4.063.66,0-3.521-3.916-3.521-3.25-1.491.569-.362,6.725-4.605,5.689.1,1.091-.474.908,0,2.166q1.384-1.268,2.168,0c0,.894.809,1.9,1.624,4.063,3.133-.391-.048-4.605.813-4.605.09-.271-.09,0,0,0" transform="translate(2655.542 2772.32)" fill="url(#linear-gradient)"/>
    <path id="Tracé_1467" data-name="Tracé 1467" d="M125.064,113.113c-1.294,0,0,.63,0,0-.181,0,0,.09,0,0" transform="translate(2656.572 2772.594)" fill="url(#linear-gradient)"/>
    <path id="Tracé_1468" data-name="Tracé 1468" d="M128.942,113.264c-.738.206-.617.065-.813.813.738-.206.617-.065.813-.813" transform="translate(2659.465 2772.714)" fill="url(#linear-gradient)"/>
    <path id="Tracé_1469" data-name="Tracé 1469" d="M99.3,116.045c1.47,2.2.3-.782,1.084-1.624q-1.219-1.357-2.439.54.043,1.351,1.355,1.084c.181.271-1.062-.612,0,0" transform="translate(2635.479 2773.184)" fill="url(#linear-gradient)"/>
    <path id="Tracé_1470" data-name="Tracé 1470" d="M117.3,120.21c0,1.529,1.662,4.605,2.979,4.605q-.374-2.31-.813-4.605c1.92,0,2.568.377,2.168-1.624.87,0,2.71,2.3,3.521-.542-4.628-.926-11.7-8.882-7.855,2.166,0,.361-.271-.777,0,0" transform="translate(2649.981 2773.624)" fill="url(#linear-gradient)"/>
    <path id="Tracé_1471" data-name="Tracé 1471" d="M106.988,114.493c1-.3-1.061.892,0,0,.54-.163-.165.138,0,0" transform="translate(2642.416 2773.651)" fill="url(#linear-gradient)"/>
    <path id="Tracé_1472" data-name="Tracé 1472" d="M97.539,114.606c0-.51-1.009-.287,0,0,0-.09-.544-.156,0,0" transform="translate(2634.801 2773.539)" fill="url(#linear-gradient)"/>
    <path id="Tracé_1473" data-name="Tracé 1473" d="M128.961,114.924c-1.158,0,0,1.735,0,0-.09,0,0,.09,0,0" transform="translate(2659.717 2774.033)" fill="url(#linear-gradient)"/>
    <path id="Tracé_1474" data-name="Tracé 1474" d="M128.582,116.359c.474,0,0-1.156,0,0,.09,0,0-.181,0,0" transform="translate(2659.825 2774.766)" fill="url(#linear-gradient)"/>
    <path id="Tracé_1475" data-name="Tracé 1475" d="M131.081,116.793c-.481,0-.409-.635-1.084-.813.646,1.936-.811.124-.811,1.355.269-.09.361,0,.269.271.678-.136,1.626-.19,1.626-.813-.09,0,0,.09,0,0" transform="translate(2660.305 2774.873)" fill="url(#linear-gradient)"/>
    <path id="Tracé_1476" data-name="Tracé 1476" d="M97.794,116.406c1.294,0,0-.63,0,0,.181,0,0-.09,0,0" transform="translate(2635.359 2774.989)" fill="url(#linear-gradient)"/>
    <path id="Tracé_1477" data-name="Tracé 1477" d="M113.725,118.329c-.6-.341-1.016-1.9-1.355-1.9a15.108,15.108,0,0,1-.54,2.166c.269-.09.361,0,.269.271.662,0-.12-.542.542-.542,0,1.707.822.488,1.084,0-.752-.427-.269.5,0,0" transform="translate(2646.513 2775.233)" fill="url(#linear-gradient)"/>
    <path id="Tracé_1478" data-name="Tracé 1478" d="M129.261,116.474q-1.37-.385-.542.813,1.37.385.542-.813c-.271,0,.09.271,0,0" transform="translate(2659.686 2775.191)" fill="url(#linear-gradient)"/>
    <path id="Tracé_1479" data-name="Tracé 1479" d="M99.42,116.827c-.926-.7-1.506.533-1.626,1.355,1.089-.14,1.626-.314,1.626-1.355-.305-.231,0,.271,0,0" transform="translate(2635.359 2775.38)" fill="url(#linear-gradient)"/>
    <path id="Tracé_1480" data-name="Tracé 1480" d="M123.806,117.851c0-1.391-2.166-1.78-2.166.271,1.529.51,1.414-.271,2.166-.271,0-.271-.181,0,0,0" transform="translate(2654.308 2775.441)" fill="url(#linear-gradient)"/>
    <path id="Tracé_1481" data-name="Tracé 1481" d="M101.439,118.407c0-1.028-1.906-1.531-2.437-1.355a10.706,10.706,0,0,1,0,3.25c1.488,0,.684-1.9,2.437-1.9,0-.271-.09,0,0,0" transform="translate(2636.319 2775.697)" fill="url(#linear-gradient)"/>
    <path id="Tracé_1482" data-name="Tracé 1482" d="M132.25,117.7c-.513,0-1.084.156-1.084,1.355-1.6-.321-1.624-.741-1.624-2.168-.8.307-2.168,1.481-2.168,2.439,1.482,0,4.876,1.624,4.876-1.626-.09,0,0,.361,0,0" transform="translate(2658.865 2775.592)" fill="url(#linear-gradient)"/>
    <path id="Tracé_1483" data-name="Tracé 1483" d="M101.012,117.474c0-.51-1.01-.287,0,0,0-.09-.546-.156,0,0" transform="translate(2637.559 2775.818)" fill="url(#linear-gradient)"/>
    <path id="Tracé_1484" data-name="Tracé 1484" d="M105.669,119.083c0-.581.221-1.9-1.084-1.9.023.111.587,1.9,1.084,1.9,0-.09-.09,0,0,0" transform="translate(2640.756 2775.832)" fill="url(#linear-gradient)"/>
    <path id="Tracé_1485" data-name="Tracé 1485" d="M113.037,117.49c0,.992.45.45,0,0,0,.181.309.309,0,0" transform="translate(2647.472 2776.073)" fill="url(#linear-gradient)"/>
    <path id="Tracé_1486" data-name="Tracé 1486" d="M123.074,117.942c-1.156,0,0,.477,0,0-.181,0,0,.092,0,0" transform="translate(2655.04 2776.432)" fill="url(#linear-gradient)"/>
    <path id="Tracé_1487" data-name="Tracé 1487" d="M113.868,118.093c-1.156,0,0,.476,0,0-.181,0,0,.09,0,0" transform="translate(2647.724 2776.552)" fill="url(#linear-gradient)"/>
    <path id="Tracé_1488" data-name="Tracé 1488" d="M103.965,124.093c2.243,0-1.355-6.12-1.355-5.687-.118-.047-4.061,1.588-4.061,2.166,2.882,0,4.309,1.859,5.416,3.521.09,0-.181-.271,0,0" transform="translate(2635.959 2776.783)" fill="url(#linear-gradient)"/>
    <path id="Tracé_1489" data-name="Tracé 1489" d="M114.6,119.781c2.026,0-.244-.969-.813-1.084,0,.273.215,3.37.813,1.084.271,0-.2.748,0,0" transform="translate(2648.071 2777.031)" fill="url(#linear-gradient)"/>
    <path id="Tracé_1490" data-name="Tracé 1490" d="M123.526,119c-1.156,0,0,.476,0,0-.181,0,0,.09,0,0" transform="translate(2655.399 2777.271)" fill="url(#linear-gradient)"/>
    <path id="Tracé_1491" data-name="Tracé 1491" d="M129.789,119.15c.459,1.524,1.217,0,0,0,.163.54.271,0,0,0" transform="translate(2660.784 2777.391)" fill="url(#linear-gradient)"/>
    <path id="Tracé_1492" data-name="Tracé 1492" d="M120.212,120.991c.519,1.037,2.03,1.495,2.437.271-.91-.059-3.69-1.856-3.858-1.692-.565.546.91,1.421,1.421,1.421.09.181-.271,0,0,0" transform="translate(2651.943 2777.717)" fill="url(#linear-gradient)"/>
    <path id="Tracé_1493" data-name="Tracé 1493" d="M126.337,128.54a.542.542,0,1,1,0,1.084,3.314,3.314,0,0,0,2.979,1.353c0-.782.415-6.771,2.708-6.771,0-1.561-3.316-3.521,0-3.521,0-.587.271.047.271-.54-1.6,0-3.117-.542-4.6-.542.244,2.206.515,4.061-1.626,4.061,0,1.445,2.019,1.418-1.084,3.792q.371-2.156-1.082-1.9c.544,2.175-1.355,3.388-1.355,5.687,1.31-.538,3.792-3.719,3.792-2.708.181,0,0-.09,0,0" transform="translate(2655.028 2777.751)" fill="url(#linear-gradient)"/>
    <path id="Tracé_1494" data-name="Tracé 1494" d="M128.883,120.092c.1,0,0-.19,0,0,.09,0,0,.09,0,0" transform="translate(2660.064 2778.073)" fill="url(#linear-gradient)"/>
    <path id="Tracé_1495" data-name="Tracé 1495" d="M119.251,127.1c.809,1.235,2.775-3.011,2.574-3.521-1.351-3.428-1.369-1.172-4.2-.813.4-1.339.4.452,0-2.708-.836,0-2.6,4.605,1.084,4.605-.075,1.468-.7,1.61.542,2.437.318.485-.271-.181,0,0" transform="translate(2650.196 2778.111)" fill="url(#linear-gradient)"/>
    <path id="Tracé_1496" data-name="Tracé 1496" d="M121.2,120.055c-.852.257,0,1.477,0,0-.54.163,0,.271,0,0" transform="translate(2653.661 2778.111)" fill="url(#linear-gradient)"/>
    <path id="Tracé_1497" data-name="Tracé 1497" d="M123.5,120.454c-.65,0-1.73-.852-2.166.813,2.242.418,2.46,1.062,2.166-.813-.181,0,.149.948,0,0" transform="translate(2654.068 2778.254)" fill="url(#linear-gradient)"/>
    <path id="Tracé_1498" data-name="Tracé 1498" d="M112.179,120.492c0-.51-1.009-.287,0,0,0-.09-.544-.156,0,0" transform="translate(2646.435 2778.216)" fill="url(#linear-gradient)"/>
    <path id="Tracé_1499" data-name="Tracé 1499" d="M165.677,286.656c.413,0,.813.092.813-.542-.163-.041-2.606-19.9.271-20.314,0-2.6-2.629-15.436-2.979-15.436,0-1.534.919-9.481-.813-9.481,0-.863.571-.271.813-.271-.118-.917-1.084-1.147-1.084-1.626,2.767-.461,1.084-1.014,1.084-2.437.056.063-.66.815-.813.815-.257-1.283.542-3.543.542-4.878-.169-.056-1.181.544-1.355.542.271-.088.361,0,.271.271-1.73-.838-.714-.935,0-1.9-3.6-1.421-1.079-2.627-2.166-5.145,1.219-.468,1.8-2.959,2.437-4.874-2.566-.122.666-.294-2.708.267,0-1.014,1.486-1.375-1.626-1.9,1.945-3.487.542-.526.542-2.979a2.669,2.669,0,0,0-2.437,2.439,4.535,4.535,0,0,1-4.063-2.166,6.707,6.707,0,0,1,2.437-.273c-.28-.933-.163-.838-1.353-.54,0-.321-.178-.485-.271-.815.632-.179,2.7-2.164,2.437-2.164,0-.533-1.084-.144-1.084-1.084,2.512,0,.757-2.451,4.063-1.626a1.965,1.965,0,0,1,.271-1.9c-2.631-.874-9.479-.743-9.479-5.956-.275.278-.131.54-.542.54.215-1.674.2-3.611.813-4.6.273,0,3.792,1.646,3.792,1.626q-.945.285-1.9.542c.425.167.607.438.542.809,2.565-.456,2.437-1.54,2.437-2.977,1.24.12,2.03,1.626,2.979,1.626-.23-2.337-1.9-1.786-1.9-3.521a40.692,40.692,0,0,1-7.313.811c.463-.524.373-.7-.271-.54a6.747,6.747,0,0,0,.547-5.56c-.716-1.983-1.254-1.631-1.63-2.3.6,1.062-4.567-4.332-3.792-4.332-.393,2.08-.587,4.6-1.355,4.6,0,1.425,1.238.892,1.626,2.439-4.5,0,1.813,3.771,2.708,4.876-1.91.635-1.565,2.435-3.521,2.435a23.44,23.44,0,0,1,1.084,4.605c-2.34-.847-1.945,1.881-4.576,1.694-.926-.068-1.931-1.2-3.279-1.421,2.042-3.464-2.166-11.523-2.166-14.084-1.992-.467-1.64.271-3.25.271-.433-2.157.73-1.988.54-3.25.985-.032.4.269,1.084.269,0-.524-2.647-.851-3.792-1.624,0-.8.813.35.813-.813-2.94,0,2.105-9.725,2.166-11.374-2.272-.379.151-5.572-2.708-7.044.271-.088.361,0,.271.271-4.1-3.072-.33-8.607.542-11.647-.782-.2-1.369-1.987-1.626-3.519,5.782-1.927-.939,7.311,4.334,7.311-.09-.271,0-.359.271-.271,0-1.111-.506-2.475.271-3.521,2.324,2.238.37,2.243,4.334,2.168-.1-.319-.271-.5-.271-.813,2.338.594,4.061,2.511,4.061,4.063,1.19-.6,1.814-.23,1.9,1.626,1.179,0,1.9-4.2,3.792-3.252,0-.8-2.184-.641-2.437-2.706,1.095,0,.081.54.811.54v-4.605c-.98,0-1.624-.854-1.9-1.9-2.351.587.269,1.131-2.708,1.626-1.018.592.842.258.54.269,0,.37-1.066.813-1.624.813,0,.75,2.832,2.36,2.979,2.439a3.824,3.824,0,0,1-2.437,1.9c.4-1.328-2.066-4.334-4.063-4.334a14.721,14.721,0,0,1,1.355-2.977c-.748-.289-1.355-.21-1.355-1.086,2.9,0,.625-.817.542-.542.271-.088.361,0,.271.271-1.92-.382-.784-.653-2.708-.271,1.637,5.811-3.979-2.69-5.147.813.271-.09.361,0,.271.273-1.938-.921-2.078-1.717-.813-2.981-4.815-1.276-2.4-.811-6.771-.811.49-2.453-2.315-7.236-2.437-8.668,1.075.1,2.839.059,3.521,1.082-.271-.088-.361,0-.271.271q1.8.773,1.9-.809c-.542,0-.188-.289,0-.544-3.148,1.048-.045-.192-3.519-.542.77-1.542-3.22-3.062-2.71,0,.831,0-.289-1.082.542-1.082.357,1.183,0,2.033,0,3.248-2.737-.91-6.348-7.713-.271-6.5-3.657-6.886,1.883-1.432,4.2-1.9,1.33-.264,5.2-4.334,1.491-4.334q-.137-.948,1.353-.269a8.142,8.142,0,0,1-.542-4.063c-.61,0-2.312.163-1.9-1.084-1.136,0-4.605,2.511-4.605,3.521-2.349-.639-3.2-3.01-5.145-3.521,0,1.314-3.259,2.105-4.334,1.9,0,1.931,2.259,3.984,2.166,5.687-.2,3.672-3.79.655-3.79-.538-2.107,1.918.54,1.561.54,2.977-1.242,0-.456-.546-1.9,0,.607,2.154-.813,2.753-.813,4.876,3.268.145,2.365-.221,6.229-.544-.973,3.232,4.269,7.584-.54,7.584.409,2.459-.136,3.252,2.166,3.252,0-.02-1.653,3.519-1.355,3.519,1,1.631.6-1,.542,1.626.842,0,.865-.542,1.626-.542,0-1.809-1.355-.063-1.355-2.168,3.243-.648,2.647,6.811,1.9,7.857-3.324,4.636-3.586-3.523-7.04-3.523,0,1.387,2.886,4.334-1.355,4.334,0,1.7,3.3,2.71,4.063,2.71,0,1.4-.876,3.234-1.9,2.977,0,1.8,3.25,4.745,3.25,2.166a2.182,2.182,0,0,1-1.9-.809c1.016-1.276,2.708-1.725,2.708-.271,3.541-1.07,1.626,2.051,1.626,3.519.271-.092.361,0,.271.271.425-.307.736-1.353,1.082-1.353.393,3.769,5.357,13-1.353,13,.086,1.935,2.166,1.734,2.166,3.794,1.888.662.775-3.008,2.721-1.534a4.061,4.061,0,0,1,1.748,3.97c-.52,4.422-3.478-.872-5.282,1.628.271.088.361,0,.271-.271-3.033.634-1.87.811-4.6.811,0,2.647,1.624-.135,1.624,2.981,2.861-.441,9.75.056,9.75,3.521-.745,0-1.971,2.294-2.708,2.437-1.723.33-4.259-2.423-5.687-2.033-2.694.739-2.173,3.772-2.168,6.367,1.2-.364,2.931,1.7,4.334,2.166-.415,1.631-1.236,1.355-2.166,1.355,0,4.582,2.681,1.8,4.6,2.435.1-.318.271-.5.271-.813-6.332,0,1.6-5.136,3.25-5.685.4,1.411.7,2.015,1.355,2.437q4.035-1.868,3.25,2.166c-.293-.118-.458-.068-.5.149.718,1.315-.858.284-.858,2.017.987,0,.4.75,1.355.273,1.062,1.262-7.645,6.229-8.668,6.229.092.269,0,.359-.269.269v3.523c-2.245-.748-1.405-.544-4.063-.544,0,.87,1.938,1.47.542,2.166.6.888,3.623,2.231,0,1.628a17.63,17.63,0,0,0,2.572,5.958c.5.887-1.373,2.566,1.49,3.519a22.969,22.969,0,0,0,0-3.792c3.333-.574,4.113,3.521,5.689,3.521-.745.734-1.35.271-2.168.271.955,2.864-.352,4.063-2.437,4.063,1.927,3.627-4.409,1.624-4.876,1.624,0-.7.813-.485.813-1.353-1.463,0-2.179-1.626-3.521-1.626,0,.551.24.813.813.813-.646,1.346-4.479,3.521-5.958,3.521,0,1.107.307,1.355,1.082,1.355,0,.4-1.3,1.7.542,1.084q.678,1.892-1.082,1.353a14.9,14.9,0,0,1,1.624,6.229c.151,0,1.118-.416,1.9-.54-.348,2,.485,3.483-1.355,3.79a3.167,3.167,0,0,1,1.626,2.979c.309,0,.416-.589,1.082-.813.739,2.376,1.9,3.13,1.9,5.147-2.737-.391-1.42,1.062-2.979.542,1.956,7.83,2.539,15.455,3.867,23.381.7,4.185,1.787,7.882,2.633,12.371.739,3.927,4.6,9.844,4.6,13.813,2.577,0,.555-4.063,2.979-4.063-.31.492,2.4,8.953,2.976,9.738,1.394,1.92,7.317,2.879,7.317,5.16,1.251-1.386-.366-.165,2.168.54s2.17.357,5.145-.271c5.9-1.244,4.855-2.186,7.855-7.853,2.5.251,1.47,1.9,4.061,1.9-.291.967-.269.165-.269,1.9,1.018-.583,6.211-2.186,6.5-1.9.544-1.631,1.208-3.792,3.25-3.792,0-2.367-.156-.233.542-3.25.219-.951,2.371-2.979.269-2.979a129.177,129.177,0,0,0,1.355-15.98c.09,0,0,.271,0,0" transform="translate(2640.875 2778.351)" fill="url(#linear-gradient)"/>
    <path id="Tracé_1500" data-name="Tracé 1500" d="M112.408,120.867c-.791,0,.3.743.542.813.336-.874-.232-1.9-.542-.813-.09,0,.154-.544,0,0" transform="translate(2646.746 2778.382)" fill="url(#linear-gradient)"/>
    <path id="Tracé_1501" data-name="Tracé 1501" d="M113.037,120.909c1.926,0,0-1.269,0,0,.271,0,0-.181,0,0" transform="translate(2647.472 2778.341)" fill="url(#linear-gradient)"/>
    <path id="Tracé_1502" data-name="Tracé 1502" d="M129.055,120.795c0-.689-1.637,0,0,0,0-.181-.09,0,0,0" transform="translate(2659.623 2778.455)" fill="url(#linear-gradient)"/>
    <path id="Tracé_1503" data-name="Tracé 1503" d="M99.636,121.36c0-2.028-.926,0,0,0,0-.271-.09,0,0,0" transform="translate(2636.496 2778.432)" fill="url(#linear-gradient)"/>
    <path id="Tracé_1504" data-name="Tracé 1504" d="M127.676,121.339c.474,0,0-1.156,0,0,.09,0,0-.181,0,0" transform="translate(2659.105 2778.723)" fill="url(#linear-gradient)"/>
    <path id="Tracé_1505" data-name="Tracé 1505" d="M123.916,121.837c0-1.382-2.367,0,0,0,0-.09-.271,0,0,0" transform="translate(2655.281 2779.039)" fill="url(#linear-gradient)"/>
    <path id="Tracé_1506" data-name="Tracé 1506" d="M107,123.34c.133-.1-.235-1.624-1.355-1.624.038.72.12,2.952,1.355,1.624.305-.232-.3.318,0,0" transform="translate(2641.595 2779.431)" fill="url(#linear-gradient)"/>
    <path id="Tracé_1507" data-name="Tracé 1507" d="M106.335,124.266c0-4.515-.271-.9-.271-2.166-1,0-2.638,1.7-.813,2.166-.648-2.6.429,0,1.084,0,0-.632-.09,0,0,0" transform="translate(2640.631 2779.589)" fill="url(#linear-gradient)"/>
    <path id="Tracé_1508" data-name="Tracé 1508" d="M102.1,123.62c0-1.007-.415-.413,0,0,0-.088-.309-.309,0,0" transform="translate(2638.636 2780.504)" fill="url(#linear-gradient)"/>
    <path id="Tracé_1509" data-name="Tracé 1509" d="M106.268,124.6a1.256,1.256,0,0,0-2.437-.542,23.26,23.26,0,0,0,2.437.542c0-.181-.689-.149,0,0" transform="translate(2640.157 2780.608)" fill="url(#linear-gradient)"/>
    <path id="Tracé_1510" data-name="Tracé 1510" d="M116.508,123.526c0,.838.569.813,1.355.813-.623-.98-.5-.522-1.355-.813,0,.183.569.192,0,0" transform="translate(2650.23 2780.869)" fill="url(#linear-gradient)"/>
    <path id="Tracé_1511" data-name="Tracé 1511" d="M101.649,124.526c0-1.007-.415-.415,0,0,0-.09-.309-.309,0,0" transform="translate(2638.276 2781.223)" fill="url(#linear-gradient)"/>
    <path id="Tracé_1512" data-name="Tracé 1512" d="M128.12,124.385c0-.976-1.491,1.493,0,0,0-.09-.309.309,0,0" transform="translate(2658.931 2781.365)" fill="url(#linear-gradient)"/>
    <path id="Tracé_1513" data-name="Tracé 1513" d="M122.142,124.81c0-.569.407-.791,0,0,0-.09-.257.5,0,0" transform="translate(2654.617 2781.481)" fill="url(#linear-gradient)"/>
    <path id="Tracé_1514" data-name="Tracé 1514" d="M101.222,127.984c.391,0,.659-2.787.813-3.25-1.21,0-1.621.271-2.708.271.68,2.5-2.439,4-2.439,5.416,1.251,0,3.247-1.612,4.334-2.437.09,0-.937.709,0,0" transform="translate(2634.639 2781.829)" fill="url(#linear-gradient)"/>
    <path id="Tracé_1515" data-name="Tracé 1515" d="M102.073,125.276l-2.166-.542c0,.677,1.412.542,2.166.542-.461-.481-.361,0,0,0" transform="translate(2637.038 2781.829)" fill="url(#linear-gradient)"/>
    <path id="Tracé_1516" data-name="Tracé 1516" d="M127.374,125.4c1.85,0,0-1.093,0,0,.271,0,0-.181,0,0" transform="translate(2658.865 2781.974)" fill="url(#linear-gradient)"/>
    <path id="Tracé_1517" data-name="Tracé 1517" d="M123.954,131.867c0-2.17-3.878-4.347-3.25-6.227-2.941.98-3.516,8.616-1.355,8.124-.09.269,0,.361.271.269,0,.732-.542-.282-.542.815,1.757-.294,3.029,1.1,3.521-1.355-4.483.639-.644-1.269,1.355-1.626,0-.359-1.032.185,0,0" transform="translate(2651.452 2782.549)" fill="url(#linear-gradient)"/>
    <path id="Tracé_1518" data-name="Tracé 1518" d="M130,125.967c-.6,0-.738-1.414-.813,1.084q1.354.406.813-1.084c-.09,0,0,.361,0,0" transform="translate(2660.304 2782.491)" fill="url(#linear-gradient)"/>
    <path id="Tracé_1519" data-name="Tracé 1519" d="M130.173,126.187c0-1.007-.415-.415,0,0,0-.09-.309-.309,0,0" transform="translate(2660.942 2782.542)" fill="url(#linear-gradient)"/>
    <path id="Tracé_1520" data-name="Tracé 1520" d="M128.162,126.666a1.594,1.594,0,0,0,1.355-.542q-1.752-1.042-1.355.542c.09,0,0-.271,0,0" transform="translate(2659.432 2782.605)" fill="url(#linear-gradient)"/>
    <path id="Tracé_1521" data-name="Tracé 1521" d="M103.193,125.942c.163.183-1.43,0-1.357,0,0,.788-.269-.5-.269,1.084,1.256.153,1.795-.208,1.626-1.084-.029-.031,0,.181,0,0" transform="translate(2638.357 2782.787)" fill="url(#linear-gradient)"/>
    <path id="Tracé_1522" data-name="Tracé 1522" d="M115.954,128.951c.811-2.211-.542-1.312-.542-2.708.562,0-2.979,2.511-2.979,2.437,2.516.42,1.481-.24,3.521.271.147-.4-.653-.163,0,0" transform="translate(2646.992 2783.028)" fill="url(#linear-gradient)"/>
    <path id="Tracé_1523" data-name="Tracé 1523" d="M121.566,126.243c-1.926,0,0,1.269,0,0-.271,0,0,.181,0,0" transform="translate(2653.569 2783.028)" fill="url(#linear-gradient)"/>
    <path id="Tracé_1524" data-name="Tracé 1524" d="M125.173,129.764c-.633,1.258,1,2.164,2.166,2.437-.12-1.091-.153-5.958-1.624-5.958a27.04,27.04,0,0,1-.542,3.521c-.212.42.09,0,0,0" transform="translate(2657.003 2783.028)" fill="url(#linear-gradient)"/>
    <path id="Tracé_1525" data-name="Tracé 1525" d="M100.72,126.849c-.7,0-.316-1.177-.813.813q1.219.407.813-.813c-.09,0,0,.271,0,0" transform="translate(2637.038 2783.235)" fill="url(#linear-gradient)"/>
    <path id="Tracé_1526" data-name="Tracé 1526" d="M127.488,127.778c0,.513,1.084-.5,1.084-1.082-1,.217-1.764.4-1.084,1.082,0,.092-.309-.307,0,0" transform="translate(2658.75 2783.388)" fill="url(#linear-gradient)"/>
    <path id="Tracé_1527" data-name="Tracé 1527" d="M100.116,127.431c.23-.461-.6-.242-.813-.269.454.506.16.526.813.269" transform="translate(2636.558 2783.735)" fill="url(#linear-gradient)"/>
    <path id="Tracé_1528" data-name="Tracé 1528" d="M128.609,127.552c-.562,0-1.084.02-1.084.542,2.629-.244,1.084-1.21,1.084-.542-.271,0,0-.09,0,0" transform="translate(2658.985 2783.885)" fill="url(#linear-gradient)"/>
    <path id="Tracé_1529" data-name="Tracé 1529" d="M122.734,127.487q-1.273-.393-1.084,1.084,1.193-.218,1.084-1.084c-.271,0,0,.09,0,0" transform="translate(2654.297 2783.95)" fill="url(#linear-gradient)"/>
    <path id="Tracé_1530" data-name="Tracé 1530" d="M100.965,128.685c0-.9-.045-.865-.813-1.084-.528,1.484-.587,1.068-.542,2.71a1.731,1.731,0,0,0,1.355-1.626c0-.271-.09,0,0,0" transform="translate(2636.793 2784.107)" fill="url(#linear-gradient)"/>
    <path id="Tracé_1531" data-name="Tracé 1531" d="M117.285,129.138c0-.66-2.058-1.07-2.437-1.084a4.669,4.669,0,0,1,.542,1.9c.888,0,.773-.659,1.9-.813,0-.09-1.138.156,0,0" transform="translate(2648.911 2784.467)" fill="url(#linear-gradient)"/>
    <path id="Tracé_1532" data-name="Tracé 1532" d="M122.729,129.026c.564-1.87-1.168,0,0,0,.163-.54-.09,0,0,0" transform="translate(2654.844 2784.579)" fill="url(#linear-gradient)"/>
    <path id="Tracé_1533" data-name="Tracé 1533" d="M97.992,128.642c0-.51-1.009-.287,0,0,0-.09-.544-.156,0,0" transform="translate(2635.161 2784.692)" fill="url(#linear-gradient)"/>
    <path id="Tracé_1534" data-name="Tracé 1534" d="M104.765,129.119c-.328-1.089.718.72,0,0-.163-.54.309.309,0,0" transform="translate(2640.846 2785.028)" fill="url(#linear-gradient)"/>
    <path id="Tracé_1535" data-name="Tracé 1535" d="M123.045,128.944c0-.51-1.009-.287,0,0,0-.09-.544-.156,0,0" transform="translate(2655.069 2784.932)" fill="url(#linear-gradient)"/>
    <path id="Tracé_1536" data-name="Tracé 1536" d="M101.257,133.986c.991,0,1.606,2.437.542,2.437.339.47,1.385.479,1.9.542,0-1.647-.271.023-.271-1.624.407,0,.542.874.542,1.082,4.377-3.5-2.708-4.6-2.708-7.313-.127,0-2.06.271-2.708.271,0,1.549,2.708,1.976,2.708,4.605.271,0,0-.09,0,0" transform="translate(2635.959 2785.306)" fill="url(#linear-gradient)"/>
    <path id="Tracé_1537" data-name="Tracé 1537" d="M123.051,129.489c-.818-.246-2.166-.413-2.166.813a12.3,12.3,0,0,0,2.166.542c-.188-2.879,0-.208,0-1.355-.54-.163,0,.09,0,0" transform="translate(2653.708 2785.469)" fill="url(#linear-gradient)"/>
    <path id="Tracé_1538" data-name="Tracé 1538" d="M124.978,131.61c-.108,0,8.394,6.035,8.394.542-.558.312-2.351-.084-3.79,0-.433-1.441.813-.31.813-1.626-1.892.379-1.193.813-2.71.813.219-.653.235-1.624-.809-1.624,0,1.077-1.9,1.723-1.9,1.9-.09,0,0-.09,0,0" transform="translate(2656.929 2785.787)" fill="url(#linear-gradient)"/>
    <path id="Tracé_1539" data-name="Tracé 1539" d="M107.137,131.792c-.124-.564-.355-1.626-1.086-1.626,0,2.891-.549,3.753,0,6.5.87,0,1.432-1,1.355-1.9q-.253.638-.813.544c1-1.8-.738-3.523.544-3.523-.142-.644-.273,0,0,0" transform="translate(2641.727 2786.145)" fill="url(#linear-gradient)"/>
    <path id="Tracé_1540" data-name="Tracé 1540" d="M123.466,131.4c1.323,0-.271-.328-.271-1.084-1.053,0,.059.872.271,1.084.181,0-.309-.309,0,0" transform="translate(2655.189 2786.266)" fill="url(#linear-gradient)"/>
    <path id="Tracé_1541" data-name="Tracé 1541" d="M124.628,130.318c-.614,0,0,1.972,0,0-.09,0,0,.271,0,0" transform="translate(2656.466 2786.266)" fill="url(#linear-gradient)"/>
    <path id="Tracé_1542" data-name="Tracé 1542" d="M124.451,131.176c1.174-.89-1.707,1.106,0,0,.305-.232-.2.129,0,0" transform="translate(2656.101 2786.761)" fill="url(#linear-gradient)"/>
    <path id="Tracé_1543" data-name="Tracé 1543" d="M114.928,131.072c-1.175,0,0,1.714,0,0-.09,0,0,.09,0,0" transform="translate(2648.56 2786.865)" fill="url(#linear-gradient)"/>
    <path id="Tracé_1544" data-name="Tracé 1544" d="M114.622,131.978c-1.156,0,0,.476,0,0-.181,0,0,.09,0,0" transform="translate(2648.324 2787.585)" fill="url(#linear-gradient)"/>
    <path id="Tracé_1545" data-name="Tracé 1545" d="M115.266,132.661c-2.123-.707,0,1,0,0-.271-.09,0,.09,0,0" transform="translate(2648.493 2787.987)" fill="url(#linear-gradient)"/>
    <path id="Tracé_1546" data-name="Tracé 1546" d="M126.673,139.624c-.614-.2,4.481-2.166,5.958-2.166,0-1.35-2.166-1.247-2.166-2.71a22.582,22.582,0,0,1-2.437.813,19.118,19.118,0,0,1-.542-2.979c-1.886,0-1.9,3.968-1.9,4.605-.581-.293-.422-.607-1-.494.334-.065-.079.666-.079.765.8,0,1.441.811,2.437.811-.223-.208-.271,2.128-.271,1.355.271.09,0-.361,0,0" transform="translate(2656.587 2788.065)" fill="url(#linear-gradient)"/>
    <path id="Tracé_1547" data-name="Tracé 1547" d="M102.322,133.223c.169-.127,0,.1,0,0,.305-.232,0,.09,0,0" transform="translate(2638.957 2788.507)" fill="url(#linear-gradient)"/>
    <path id="Tracé_1548" data-name="Tracé 1548" d="M105.038,134.017c1.542-.465,0-.879,0,0,.54-.163,0-.181,0,0" transform="translate(2641.115 2788.796)" fill="url(#linear-gradient)"/>
    <path id="Tracé_1549" data-name="Tracé 1549" d="M102.221,134.167c0-.569.407-.791,0,0,0-.09-.257.5,0,0" transform="translate(2638.787 2788.917)" fill="url(#linear-gradient)"/>
    <path id="Tracé_1550" data-name="Tracé 1550" d="M103.672,136.07c.632-2.532-1.364-1-2.708-.271a2.691,2.691,0,0,0,2.708,1.626c0-.373-.876-1.355,0-1.355.088-.361-.09,0,0,0" transform="translate(2637.878 2789.723)" fill="url(#linear-gradient)"/>
    <path id="Tracé_1551" data-name="Tracé 1551" d="M117.866,134.925c0,.608,2.173-.619,0,0,0,.092.544-.156,0,0" transform="translate(2651.309 2789.784)" fill="url(#linear-gradient)"/>
    <path id="Tracé_1552" data-name="Tracé 1552" d="M106.7,134.845c0,1.161.9,0,0,0,0,.183.09,0,0,0" transform="translate(2642.435 2789.864)" fill="url(#linear-gradient)"/>
    <path id="Tracé_1553" data-name="Tracé 1553" d="M123.9,135.676c.474,0,0-1.156,0,0,.09,0,0-.181,0,0" transform="translate(2656.107 2790.116)" fill="url(#linear-gradient)"/>
    <path id="Tracé_1554" data-name="Tracé 1554" d="M129.081,136.459c0-1.3-1,0,0,0,0-.181-.09,0,0,0" transform="translate(2659.866 2790.688)" fill="url(#linear-gradient)"/>
    <path id="Tracé_1555" data-name="Tracé 1555" d="M129.119,142.859c2.378-.551,7.633-5.147,2.708-5.147q.638.256.542.813c-2.687-.217-5.145-.969-5.145,2.168,1.441,1.059.971.467,1.9,2.166,1.28-.3-.169-.312,0,0" transform="translate(2658.746 2792.142)" fill="url(#linear-gradient)"/>
    <path id="Tracé_1556" data-name="Tracé 1556" d="M101.833,144.426c.6.456-.766,1.355,2.166,1.355-.223.208-.271-2.128-.271-1.355,1.21.766,1.75-.592,2.439-1.624-1.656,0-3.25-3.044-3.25-4.334.695,0-2.491,4.413-2.708,5.145q1.419-.915,1.624.813c.305.232-.154-.662,0,0" transform="translate(2637.278 2792.742)" fill="url(#linear-gradient)"/>
    <path id="Tracé_1557" data-name="Tracé 1557" d="M98.4,138.769a3.183,3.183,0,0,0,1.624,2.437c-.09-.271,0-.361.271-.271a1.887,1.887,0,0,0-1.9-2.166c.09.45.949.144,0,0" transform="translate(2635.839 2792.982)" fill="url(#linear-gradient)"/>
    <path id="Tracé_1558" data-name="Tracé 1558" d="M102,139.268c-.3-1-.5,0,0,0-.163-.54-.09,0,0,0" transform="translate(2638.463 2793.024)" fill="url(#linear-gradient)"/>
    <path id="Tracé_1559" data-name="Tracé 1559" d="M103.68,140.429c0,.992.45.452,0,0,0,.183.309.31,0,0" transform="translate(2640.036 2794.301)" fill="url(#linear-gradient)"/>
    <path id="Tracé_1560" data-name="Tracé 1560" d="M122.7,141.788c0,1.159.9,0,0,0,0,.181.09,0,0,0" transform="translate(2655.147 2795.381)" fill="url(#linear-gradient)"/>
    <path id="Tracé_1561" data-name="Tracé 1561" d="M120.885,142.09c0,.992.45.45,0,0,0,.181.309.309,0,0" transform="translate(2653.708 2795.621)" fill="url(#linear-gradient)"/>
    <path id="Tracé_1562" data-name="Tracé 1562" d="M121.338,142.542c0,1.159.9,0,0,0,0,.181.09,0,0,0" transform="translate(2654.068 2795.98)" fill="url(#linear-gradient)"/>
    <path id="Tracé_1563" data-name="Tracé 1563" d="M102.322,142.995c0,.992.45.45,0,0,0,.181.309.309,0,0" transform="translate(2638.957 2796.34)" fill="url(#linear-gradient)"/>
    <path id="Tracé_1564" data-name="Tracé 1564" d="M124.762,143.448c-1.294,0,0,.63,0,0-.181,0,0,.09,0,0" transform="translate(2656.332 2796.7)" fill="url(#linear-gradient)"/>
    <path id="Tracé_1565" data-name="Tracé 1565" d="M129.684,157.713c.748-.224-.983-.784-1.355-1.9,1.05,0,.443-.738,2.168-1.084-.565-2.014-1.044-10.834-3.792-10.834,0,.82-1.963,10.834-1.9,10.834.2.666.126.885.811.542-1.328,3.988-1.2,5.145,2.708,5.145a4.677,4.677,0,0,0,.271,1.355c2.1,0,1.635-2.044,1.084-4.063.54-.163.406,1.482,0,0" transform="translate(2656.826 2797.059)" fill="url(#linear-gradient)"/>
    <path id="Tracé_1566" data-name="Tracé 1566" d="M118.319,145.078c1.972,0,0-.614,0,0,.271,0,0-.09,0,0" transform="translate(2651.669 2797.778)" fill="url(#linear-gradient)"/>
    <path id="Tracé_1567" data-name="Tracé 1567" d="M102.74,146.959l-1.626.542c.4,1.545,3.514,3.257,4.334,2.437a.553.553,0,0,0,.271.542c-.544,1.63-1.863-.109-.813,1.9,1.913,0,2.193-3.792,1.626-4.874-2.25.271.1.336-2.437-.271,0-1.245.811.163.811-1.084-1.3-.185-2.166-1.748-2.166.813-.542.181,0-.452,0,0" transform="translate(2637.997 2798.334)" fill="url(#linear-gradient)"/>
    <path id="Tracé_1568" data-name="Tracé 1568" d="M107.786,146.865c0-2.03-.926,0,0,0,0-.271-.09,0,0,0" transform="translate(2642.972 2798.698)" fill="url(#linear-gradient)"/>
    <path id="Tracé_1569" data-name="Tracé 1569" d="M121.817,146.27c-.284,0,.538-.538,0,0-.09,0,.309-.309,0,0" transform="translate(2654.4 2798.752)" fill="url(#linear-gradient)"/>
    <path id="Tracé_1570" data-name="Tracé 1570" d="M121.265,146.315c-1.728.47-.37,1.913,0,0-.641.174-.115.59,0,0" transform="translate(2653.329 2798.978)" fill="url(#linear-gradient)"/>
    <path id="Tracé_1571" data-name="Tracé 1571" d="M132.188,148.368c-1.168-5.843-3.981,3.688-3.252,2.708,1.468.066,1.626.111,1.626-.813.149,0,1.981,2.4,2.843.813.892-1.644-.1-2.932-1.217-2.708-.09-.452.452-.09,0,0" transform="translate(2660.011 2799.093)" fill="url(#linear-gradient)"/>
    <path id="Tracé_1572" data-name="Tracé 1572" d="M123.114,147.245q-1.556-.3-1.626,1.084a14.253,14.253,0,0,0,3.25.811,6.363,6.363,0,0,1-1.624-1.9c-.433.165.291,1.084,0,0" transform="translate(2654.188 2799.674)" fill="url(#linear-gradient)"/>
    <path id="Tracé_1573" data-name="Tracé 1573" d="M101.041,147.372c-1.158,0,0,.476,0,0-.183,0,0,.09,0,0" transform="translate(2637.531 2799.818)" fill="url(#linear-gradient)"/>
    <path id="Tracé_1574" data-name="Tracé 1574" d="M120.641,151.465c0,.377,1.055,2.437,1.9,2.437-.763-2.046-.91-4.085,1.082-4.061,0-1.647-2.812-2.168-3.792-2.168,0,.445,1.676,3.792.813,3.792,0,.09.09,0,0,0" transform="translate(2652.868 2800.057)" fill="url(#linear-gradient)"/>
    <path id="Tracé_1575" data-name="Tracé 1575" d="M106.849,148.7c.892,1.78,4.063.176,4.063-.813a5.171,5.171,0,0,0-4.063.813c.09.181.465-.305,0,0" transform="translate(2642.555 2800.112)" fill="url(#linear-gradient)"/>
    <path id="Tracé_1576" data-name="Tracé 1576" d="M128.17,148.55c.781-2.6-1.287,1.028,0,0,.158-.528-.3.239,0,0" transform="translate(2659.153 2799.993)" fill="url(#linear-gradient)"/>
    <path id="Tracé_1577" data-name="Tracé 1577" d="M122.243,149.1c0,.459.022,1.626.542,1.626,0-.931,2.468-2.227-.542-1.626,0,.361.45-.09,0,0" transform="translate(2654.788 2801.069)" fill="url(#linear-gradient)"/>
    <path id="Tracé_1578" data-name="Tracé 1578" d="M121.994,150.414c0-2.423-1.037,0,0,0,0-.361-.09,0,0,0" transform="translate(2654.223 2801.38)" fill="url(#linear-gradient)"/>
    <path id="Tracé_1579" data-name="Tracé 1579" d="M123.51,149.485c-1.073,0,0,1.027,0,0-.181,0,0,.181,0,0" transform="translate(2655.416 2801.497)" fill="url(#linear-gradient)"/>
    <path id="Tracé_1580" data-name="Tracé 1580" d="M129.789,151.412c0,.836,2.306-1.028,0-1.626a.932.932,0,0,1,0,1.626c0,.09.883-.768,0,0" transform="translate(2660.784 2801.736)" fill="url(#linear-gradient)"/>
    <path id="Tracé_1581" data-name="Tracé 1581" d="M102.4,154.542c1.073,0-1.315-1.9,1.084-1.9a8.451,8.451,0,0,0-2.439-2.71c-.854,3.317,1.355,2.041,1.355,4.605.09,0,0-.09,0,0" transform="translate(2637.791 2801.856)" fill="url(#linear-gradient)"/>
    <path id="Tracé_1582" data-name="Tracé 1582" d="M130.736,150.946c0-1.292-.21,0,0,0,0-.09-.09,0,0,0" transform="translate(2661.463 2802.202)" fill="url(#linear-gradient)"/>
    <path id="Tracé_1583" data-name="Tracé 1583" d="M103.6,150.862q-.541,1.489.813,1.084.221-1.346-.813-1.084c0,.361.181,0,0,0" transform="translate(2639.848 2802.557)" fill="url(#linear-gradient)"/>
    <path id="Tracé_1584" data-name="Tracé 1584" d="M123.152,151.625c-1.649-1.628-.826,2.18-.813,2.437,1.1,0-.418-.881,1.9-.809l-1.084-1.628c-.307-.3.68.37,0,0" transform="translate(2654.692 2802.877)" fill="url(#linear-gradient)"/>
    <path id="Tracé_1585" data-name="Tracé 1585" d="M123.3,151.446c.232.768.169.813,1.084.813-.232-.768-.171-.813-1.084-.813.163.54.271,0,0,0" transform="translate(2655.627 2803.055)" fill="url(#linear-gradient)"/>
    <path id="Tracé_1586" data-name="Tracé 1586" d="M105.3,155.42c0,1.161.838-3.259.813-3.521a2.206,2.206,0,0,0-1.355,1.9c-1.342,0,2.775-.492-2.437-.54.127,2.155,1.219,1.658,1.084,3.25a3.689,3.689,0,0,1,1.9-1.084c0,.09-.642-.136,0,0" transform="translate(2638.957 2803.416)" fill="url(#linear-gradient)"/>
    <path id="Tracé_1587" data-name="Tracé 1587" d="M108.918,153.808c-1.78,0,1.084.129,1.084-1.9q-1.454-.261-1.084,1.9c-.271,0,.181-.632,0,0" transform="translate(2643.736 2803.404)" fill="url(#linear-gradient)"/>
    <path id="Tracé_1588" data-name="Tracé 1588" d="M121.276,154.607q-.339,1.753,1.084,1.355c0-.565.8-4.063-.813-4.063q.385,1.367-.813.542c0,.976,1.45.991.542,2.166.09.452.154-.2,0,0" transform="translate(2653.588 2803.416)" fill="url(#linear-gradient)"/>
    <path id="Tracé_1589" data-name="Tracé 1589" d="M120.006,152.053q-1.12-.121-1.084,1.624a.8.8,0,0,0,1.084.271,1.765,1.765,0,0,1,0-1.9c-.09,0,.226.47,0,0" transform="translate(2652.148 2803.532)" fill="url(#linear-gradient)"/>
    <path id="Tracé_1590" data-name="Tracé 1590" d="M134.03,159.271c.712,0-.829-.813-1.084-.813.786-3.137,1.987-4.318-.623-5.87-1.028-.614-4.828,2.471.081,3.162,0,1.14-2.654,1.084-3.521,1.084.51,1.525,3.25,1.761,3.25,3.792q.95-.678,1.9-1.355c.09,0-.4.628,0,0" transform="translate(2660.064 2803.899)" fill="url(#linear-gradient)"/>
    <path id="Tracé_1591" data-name="Tracé 1591" d="M106.548,155.7c0,1.992,4.332,1.084,4.874,1.084q.221-1.346-.811-1.084a1.829,1.829,0,0,0,.811-1.624c-1.563-.522-1.127-.106-3.25-.813.066,1.082-.135,2.437-1.624,2.437,0,.09.179,0,0,0" transform="translate(2642.315 2804.495)" fill="url(#linear-gradient)"/>
    <path id="Tracé_1592" data-name="Tracé 1592" d="M129.816,154.341a1.177,1.177,0,0,0-1.084-1.084,1.086,1.086,0,0,0,1.084,1.084c0-.181-.793-.185,0,0" transform="translate(2659.944 2804.495)" fill="url(#linear-gradient)"/>
    <path id="Tracé_1593" data-name="Tracé 1593" d="M123.387,153.619q-1.626-.541-1.084,1.084,1.995.3,1.084-1.084c-.361,0,.09.271,0,0" transform="translate(2654.728 2804.675)" fill="url(#linear-gradient)"/>
    <path id="Tracé_1594" data-name="Tracé 1594" d="M105.078,154.336c0-1.337-1.265,1.152.542,1.624q.53-1.758-.542-1.624c0-.181.09,0,0,0" transform="translate(2640.805 2805.042)" fill="url(#linear-gradient)"/>
    <path id="Tracé_1595" data-name="Tracé 1595" d="M104.767,157.444a29.814,29.814,0,0,1-.271-2.979c-1.653,0-.4,2.979.271,2.979,0,.09-.09,0,0,0" transform="translate(2640.034 2805.455)" fill="url(#linear-gradient)"/>
    <path id="Tracé_1596" data-name="Tracé 1596" d="M102.651,154.767c-1.048,0-1.084.723-1.084,1.355q1.61.156,1.084-1.355c-.271,0,0,.361,0,0" transform="translate(2638.357 2805.695)" fill="url(#linear-gradient)"/>
    <path id="Tracé_1597" data-name="Tracé 1597" d="M122.947,155.32c0-1.276-1.276,0,0,0,0-.181-.181,0,0,0" transform="translate(2654.896 2805.684)" fill="url(#linear-gradient)"/>
    <path id="Tracé_1598" data-name="Tracé 1598" d="M105.038,155.219c0,.992.45.452,0,0,0,.183.309.31,0,0" transform="translate(2641.115 2806.054)" fill="url(#linear-gradient)"/>
    <path id="Tracé_1599" data-name="Tracé 1599" d="M128.062,158.141c1-1.673,1.552-3.742-1.9-2.437.1.318.271.5.271.813,1.644-.824,1.348,1.624,1.624,1.624.271-.452-.09,0,0,0" transform="translate(2657.906 2806.112)" fill="url(#linear-gradient)"/>
    <path id="Tracé_1600" data-name="Tracé 1600" d="M129.213,156.549q.869-1.327-.813-.813c.565,2.258-.271.025-.271,1.9.854-.239.569-1.084,1.084-1.084.09-.271-.09,0,0,0" transform="translate(2659.465 2806.35)" fill="url(#linear-gradient)"/>
    <path id="Tracé_1601" data-name="Tracé 1601" d="M104,157.448c0-2.886-.271-.6-.271-1.624-.743,0-.531,1.414.271,1.624,0-.452-.748-.2,0,0" transform="translate(2639.714 2806.534)" fill="url(#linear-gradient)"/>
    <path id="Tracé_1602" data-name="Tracé 1602" d="M102.564,158.442c.745,2.234.675-2.166-.542-2.166,0,.429-.1,2.166.542,2.166.09.271-.09,0,0,0" transform="translate(2638.715 2806.894)" fill="url(#linear-gradient)"/>
    <path id="Tracé_1603" data-name="Tracé 1603" d="M105.1,158.473c.194-1.109.431-1.9-.813-1.9.206,1.141-.332,1.513.813,1.9.179-1.03-.271-.09,0,0" transform="translate(2640.516 2807.134)" fill="url(#linear-gradient)"/>
    <path id="Tracé_1604" data-name="Tracé 1604" d="M122.285,157.651c-.441-1.621-.705,0,0,0-.174-.641-.09,0,0,0" transform="translate(2654.475 2807.414)" fill="url(#linear-gradient)"/>
    <path id="Tracé_1605" data-name="Tracé 1605" d="M130.7,157.785c0,1.825.978,0,0,0,0,.271.181,0,0,0" transform="translate(2661.504 2808.093)" fill="url(#linear-gradient)"/>
    <path id="Tracé_1606" data-name="Tracé 1606" d="M120.328,158.8c0-1.3-1,0,0,0,0-.181-.09,0,0,0" transform="translate(2652.911 2808.438)" fill="url(#linear-gradient)"/>
    <path id="Tracé_1607" data-name="Tracé 1607" d="M124.509,158.238c-1.545,0,0,.845,0,0-.271,0,0,.181,0,0" transform="translate(2656.042 2808.453)" fill="url(#linear-gradient)"/>
    <path id="Tracé_1608" data-name="Tracé 1608" d="M132.528,160.133c0-1.789-.542.255-.542-1.9-.614.2-1.9.565-1.9,1.082.057.02,2.25.813,2.437.813,0-.271-.181,0,0,0" transform="translate(2661.024 2808.453)" fill="url(#linear-gradient)"/>
    <path id="Tracé_1609" data-name="Tracé 1609" d="M129.789,158.389c0,1.159.9,0,0,0,0,.181.09,0,0,0" transform="translate(2660.784 2808.573)" fill="url(#linear-gradient)"/>
    <path id="Tracé_1610" data-name="Tracé 1610" d="M128.048,166.467c-1.389-.278-.881-4.946-1.49-5.958-1.56-2.6-1.78-1.425-4.74-1.626-.284,1.78.44,2.769.542,4.063,1.935,0,1.111.355,1.624,1.9.657-.074.842-.54,1.355-.54,0,1.506,1.624,2.277,1.624,3.521a1.99,1.99,0,0,0,1.084-1.355c-.452-.09,0,.09,0,0" transform="translate(2654.399 2808.891)" fill="url(#linear-gradient)"/>
    <path id="Tracé_1611" data-name="Tracé 1611" d="M129.971,159.387c-.1,0-1.254,1.328.813.813,0-.614-.813-1.405-.813-.813-.09,0,0-.09,0,0" transform="translate(2660.602 2809.199)" fill="url(#linear-gradient)"/>
    <path id="Tracé_1612" data-name="Tracé 1612" d="M103.946,162.815c0,.957.813-.215.813-.813,5.111,1.707.337-4.275.542-.542-1.814-.6-.944-2.166-2.979-2.166.239,2.2-.465,2.128,1.624,3.521,0,.09-.542-.361,0,0" transform="translate(2638.957 2809.292)" fill="url(#linear-gradient)"/>
    <path id="Tracé_1613" data-name="Tracé 1613" d="M108.358,161.18c.221.845.852,1.028,1.9.542-.695-2.082,0-.074,0-1.082a.526.526,0,0,0-.7-.267c-1.111.129,3.385.58-1.192.808.09.183.59-.029,0,0" transform="translate(2643.754 2810.114)" fill="url(#linear-gradient)"/>
    <path id="Tracé_1614" data-name="Tracé 1614" d="M131.955,162.2c-.406-2.024-.935-1.355-2.166-1.355.634,1.321.84.913,2.166,1.355-.09-.452-.271-.09,0,0" transform="translate(2660.784 2810.444)" fill="url(#linear-gradient)"/>
    <path id="Tracé_1615" data-name="Tracé 1615" d="M107.105,161.98c0,.043-7.548,4.063-2.708,4.063-1.075,7.521,3.593.542,5.145.542-.174-1.235-1.012-2.823-2.166-2.439q1.82-3.249-.271-2.166c0,.09.271-.09,0,0" transform="translate(2639.319 2811.211)" fill="url(#linear-gradient)"/>
    <path id="Tracé_1616" data-name="Tracé 1616" d="M123.658,164.781c0-.44-.165-2.166-1.355-2.166-.4,2.722.1,1.755,1.355,2.166,0-.09-.538-.176,0,0" transform="translate(2654.728 2811.931)" fill="url(#linear-gradient)"/>
    <path id="Tracé_1617" data-name="Tracé 1617" d="M101.869,164.5c.474,0,0-1.156,0,0,.09,0,0-.181,0,0" transform="translate(2638.597 2813.022)" fill="url(#linear-gradient)"/>
    <path id="Tracé_1618" data-name="Tracé 1618" d="M125.71,164.332q-1.685-.98-1.272.088c.233.779.98.2,1.272-.088-.452-.09-.309.309,0,0" transform="translate(2656.466 2812.922)" fill="url(#linear-gradient)"/>
    <path id="Tracé_1619" data-name="Tracé 1619" d="M125.554,165.5c0-2.189-1.49-.389,0,0,0-.361-.748-.2,0,0" transform="translate(2656.893 2813.377)" fill="url(#linear-gradient)"/>
    <path id="Tracé_1620" data-name="Tracé 1620" d="M123.941,166.507c-.122-1.159-.572-1.7-1.355-1.626q-.463,2.162,1.355,1.626c-.233-.87-.361,0,0,0" transform="translate(2654.985 2813.726)" fill="url(#linear-gradient)"/>
    <path id="Tracé_1621" data-name="Tracé 1621" d="M114.145,166.429c.872-1.744-1.376,0,0,0,.09-.181-.09,0,0,0" transform="translate(2647.988 2814.346)" fill="url(#linear-gradient)"/>
    <path id="Tracé_1622" data-name="Tracé 1622" d="M131.751,165.9c2.665,0,0-.592,0,0,.361,0,0-.09,0,0" transform="translate(2662.343 2814.333)" fill="url(#linear-gradient)"/>
    <path id="Tracé_1623" data-name="Tracé 1623" d="M130.544,166.464c.474,0,0-1.156,0,0,.09,0,0-.181,0,0" transform="translate(2661.384 2814.582)" fill="url(#linear-gradient)"/>
    <path id="Tracé_1624" data-name="Tracé 1624" d="M112.131,167.326c1.023,0,0-1.7,0,0,.09,0,0-.271,0,0" transform="translate(2646.752 2815.073)" fill="url(#linear-gradient)"/>
    <path id="Tracé_1625" data-name="Tracé 1625" d="M115.5,167.4c0-1.3-1.005,0,0,0,0-.181-.09,0,0,0" transform="translate(2649.073 2815.273)" fill="url(#linear-gradient)"/>
    <path id="Tracé_1626" data-name="Tracé 1626" d="M112.433,168.134c.614,0,0-1.972,0,0,.09,0,0-.271,0,0" transform="translate(2646.992 2815.62)" fill="url(#linear-gradient)"/>
    <path id="Tracé_1627" data-name="Tracé 1627" d="M136.212,167.595c-.818.38-1.9,1.328-1.9,1.624,1.384-.156,1.9-.282,1.9-1.624-1.036.481,0,.361,0,0" transform="translate(2664.382 2815.888)" fill="url(#linear-gradient)"/>
    <path id="Tracé_1628" data-name="Tracé 1628" d="M135.826,167.9c0,.992.45.45,0,0,0,.181.309.309,0,0" transform="translate(2665.581 2816.128)" fill="url(#linear-gradient)"/>
    <path id="Tracé_1629" data-name="Tracé 1629" d="M133.458,168.483c0-.508-1.009-.287,0,0,0-.09-.544-.154,0,0" transform="translate(2663.344 2816.353)" fill="url(#linear-gradient)"/>
    <path id="Tracé_1630" data-name="Tracé 1630" d="M105.426,170.787c-.526.779-.835,1.084.811,1.084-.436.964-1.093,2.437-2.437,2.437-1.841,1.649,7.042,3.961,7.042,1.084-3.239,0-.813-4.11-.813-5.418-1.317,0-1.432-1.624-2.439-1.624,0,1.612-2.164.373-2.164,2.166-.319-.1-.5-.271-.815-.271.626-1.168.7-1.077-.271-1.353q-2.054,1.639,1.086,1.9c-.339.5-1.068-.014,0,0" transform="translate(2639.916 2816.488)" fill="url(#linear-gradient)"/>
    <path id="Tracé_1631" data-name="Tracé 1631" d="M102.02,168.953c0,1.009.305.339,0,0,0,.09.165.185,0,0" transform="translate(2638.717 2816.967)" fill="url(#linear-gradient)"/>
    <path id="Tracé_1632" data-name="Tracé 1632" d="M102.649,171.1c0-.2-.129,0,0,0,0-.09.09,0,0,0" transform="translate(2639.172 2818.607)" fill="url(#linear-gradient)"/>
    <path id="Tracé_1633" data-name="Tracé 1633" d="M103.136,171.447c-.35.266.167.438.542.813.44-1.321-.542-1.01-.542-.813-.305.232,0-.09,0,0" transform="translate(2639.496 2818.807)" fill="url(#linear-gradient)"/>
    <path id="Tracé_1634" data-name="Tracé 1634" d="M134.967,172.257c0-.51-1.009-.287,0,0,0-.09-.544-.156,0,0" transform="translate(2664.543 2819.351)" fill="url(#linear-gradient)"/>
    <path id="Tracé_1635" data-name="Tracé 1635" d="M102.976,173.1c0-.569.407-.791,0,0,0-.09-.257.5,0,0" transform="translate(2639.386 2819.858)" fill="url(#linear-gradient)"/>
    <path id="Tracé_1636" data-name="Tracé 1636" d="M136.789,174.235c-.887,0-.312.312,0,0-.09,0-.309.309,0,0" transform="translate(2665.971 2821.165)" fill="url(#linear-gradient)"/>
    <path id="Tracé_1637" data-name="Tracé 1637" d="M108.827,189.062c1.834.352,1.525.813,2.706.813-1.12-2.927.542-.221.542-1.9-.319.1-.5.271-.813.271,2.5-5,.108.273,0-3.25.319.1.5.271.813.271-.041-2.121,1.692-8.219-.44-9.987-1.217-1.01-6.344,1.052-7.956,1.321a4.618,4.618,0,0,1,.271,2.708c2.249,0-2.758-2.706,2.979-.542-.221,1.848.6,2.428.54,4.334.02-.66-7.125,5.639,1.626,4.063-.09.632-.181,1.263-.269,1.9.668.129.088-.632,0,0" transform="translate(2640.036 2821.777)" fill="url(#linear-gradient)"/>
    <path id="Tracé_1638" data-name="Tracé 1638" d="M104.633,177.69c0-.51-1.009-.287,0,0,0-.09-.544-.156,0,0" transform="translate(2640.438 2823.668)" fill="url(#linear-gradient)"/>
    <path id="Tracé_1639" data-name="Tracé 1639" d="M136.628,180.1c0-.51-1.009-.287,0,0,0-.09-.544-.156,0,0" transform="translate(2665.862 2825.587)" fill="url(#linear-gradient)"/>
    <path id="Tracé_1640" data-name="Tracé 1640" d="M113.792,180.121c0,.992.45.45,0,0,0,.181.309.309,0,0" transform="translate(2648.072 2825.842)" fill="url(#linear-gradient)"/>
    <path id="Tracé_1641" data-name="Tracé 1641" d="M113.889,180.611q-1.47-.393-.542,1.084,1.085.269.542-1.084c-.271,0,0,.361,0,0" transform="translate(2647.433 2826.166)" fill="url(#linear-gradient)"/>
    <path id="Tracé_1642" data-name="Tracé 1642" d="M114.5,180.849c0-.63-1.294,0,0,0,0-.09-.181,0,0,0" transform="translate(2648.177 2826.198)" fill="url(#linear-gradient)"/>
    <path id="Tracé_1643" data-name="Tracé 1643" d="M113.7,182.292c-.206-.738-.065-.617-.813-.813.206.738.065.617.813.813" transform="translate(2647.352 2826.921)" fill="url(#linear-gradient)"/>
    <path id="Tracé_1644" data-name="Tracé 1644" d="M112.348,181.781a5.207,5.207,0,0,0-.813,2.437q2.369.538.813-2.437c-.09,0,.09.813,0,0" transform="translate(2646.266 2827.161)" fill="url(#linear-gradient)"/>
    <path id="Tracé_1645" data-name="Tracé 1645" d="M104.736,182.295c1.048,0,.059-.059,0,0,.09,0,.309-.309,0,0" transform="translate(2640.875 2827.46)" fill="url(#linear-gradient)"/>
    <path id="Tracé_1646" data-name="Tracé 1646" d="M107.9,195.579c.52-.174,1.084-.364,1.084-.813-2.315,0-1.084-.185-1.084.813.271-.09,0-.09,0,0" transform="translate(2643.13 2837.469)" fill="url(#linear-gradient)"/>
    <path id="Tracé_1647" data-name="Tracé 1647" d="M107.906,196.178c.251,0,0-1.068,0,0,.09,0,0-.09,0,0" transform="translate(2643.395 2838.224)" fill="url(#linear-gradient)"/>
    <path id="Tracé_1648" data-name="Tracé 1648" d="M139.448,210.909c0,1.009.305.339,0,0,0,.09.165.185,0,0" transform="translate(2668.459 2850.307)" fill="url(#linear-gradient)"/>
    <path id="Tracé_1649" data-name="Tracé 1649" d="M139.6,212.041c.474,0,0-1.156,0,0,.09,0,0-.181,0,0" transform="translate(2668.579 2850.799)" fill="url(#linear-gradient)"/>
    <path id="Tracé_1650" data-name="Tracé 1650" d="M139.935,213.2c-.343-1.138.6.6,0,0-.163-.54.309.309,0,0" transform="translate(2668.785 2851.811)" fill="url(#linear-gradient)"/>
  </g>
</svg>
