<svg xmlns="http://www.w3.org/2000/svg" width="86.214" height="54.35" viewBox="0 0 86.214 54.35">
  <g id="icon-quote" transform="translate(-896.5 -2701.839)">
    <path id="Tracé_96" data-name="Tracé 96" d="M38.665,19.333c0,17.006-12.165,27.126-19.749,31.785a.992.992,0,0,1-1.265-1.5,39.419,39.419,0,0,0,6.985-11.694A19.335,19.335,0,1,1,38.665,19.333" transform="translate(936.665 2754.689) rotate(180)" fill="none" stroke="#f5f5f5" stroke-width="3"/>
    <path id="Tracé_97" data-name="Tracé 97" d="M38.665,19.333c0,17.006-12.165,27.126-19.749,31.785a.992.992,0,0,1-1.265-1.5,39.419,39.419,0,0,0,6.985-11.694A19.335,19.335,0,1,1,38.665,19.333" transform="translate(981.214 2754.689) rotate(180)" fill="none" stroke="#f5f5f5" stroke-width="3"/>
  </g>
</svg>
