<?xml version="1.0" standalone="no"?>
<!DOCTYPE svg PUBLIC "-//W3C//DTD SVG 20010904//EN"
 "http://www.w3.org/TR/2001/REC-SVG-20010904/DTD/svg10.dtd">
<svg version="1.0" xmlns="http://www.w3.org/2000/svg"
 width="992.000000pt" height="992.000000pt" viewBox="0 0 992.000000 992.000000"
 preserveAspectRatio="xMidYMid meet">
<metadata>
Created by potrace 1.14, written by Peter Selinger 2001-2017
</metadata>
<g transform="translate(0.000000,992.000000) scale(0.100000,-0.100000)"
fill="#000000" stroke="none">
<path d="M6076 9877 c-10 -23 -25 -60 -34 -82 -17 -43 -158 -325 -195 -390
-82 -146 -124 -215 -147 -242 -5 -7 -10 -15 -10 -18 0 -3 -19 -33 -42 -66 -24
-33 -47 -68 -53 -77 -5 -10 -12 -19 -15 -22 -3 -3 -25 -32 -49 -65 -65 -89
-152 -196 -183 -228 -16 -15 -28 -30 -28 -33 0 -9 -255 -261 -315 -312 -27
-23 -57 -48 -65 -55 -48 -40 -152 -117 -158 -117 -5 0 -17 -8 -28 -17 -27 -25
-102 -73 -113 -73 -5 0 -11 -4 -13 -9 -7 -19 -326 -174 -371 -180 -4 0 -21 -8
-37 -16 -17 -9 -30 -13 -30 -11 0 3 -17 -2 -37 -10 -20 -9 -46 -18 -57 -21
-31 -6 -39 -9 -61 -16 -11 -3 -31 -8 -45 -11 -14 -3 -61 -12 -105 -21 -44 -9
-107 -19 -140 -22 -80 -8 -418 -12 -429 -5 -5 3 -28 6 -51 7 -22 2 -65 8 -95
14 -30 6 -65 12 -77 14 -12 2 -26 6 -29 10 -4 4 -15 7 -23 7 -21 0 -162 46
-221 72 -238 104 -419 229 -593 407 -34 35 -72 73 -84 85 -62 61 -243 304
-243 325 0 5 -4 11 -8 13 -11 4 -102 162 -102 176 0 7 -3 12 -7 12 -5 0 -16
17 -25 38 -80 173 -128 289 -128 311 0 14 -2 14 -16 0 -8 -9 -17 -22 -18 -30
-2 -8 -8 -26 -14 -40 -6 -15 -14 -43 -17 -63 -4 -20 -11 -36 -17 -36 -5 0 -7
-4 -4 -8 3 -4 1 -26 -4 -48 -6 -21 -13 -68 -16 -104 -19 -194 12 -339 99 -453
38 -51 52 -70 117 -162 27 -38 53 -75 58 -80 5 -6 11 -15 13 -20 2 -6 29 -48
60 -95 77 -117 139 -218 139 -226 0 -3 8 -18 19 -32 43 -61 221 -410 221 -433
0 -5 5 -9 10 -9 6 0 10 -7 10 -15 0 -8 4 -23 9 -33 37 -70 148 -362 166 -438
3 -10 18 -68 34 -129 16 -60 32 -126 34 -145 3 -19 6 -35 7 -35 1 0 3 -18 5
-40 2 -22 8 -65 13 -95 10 -53 8 -357 -2 -470 -6 -67 -16 -196 -21 -268 -2
-29 -6 -70 -9 -90 -3 -20 -8 -66 -11 -102 -4 -36 -8 -76 -10 -90 -3 -14 -7
-50 -10 -80 -3 -30 -7 -66 -10 -80 -3 -14 -7 -50 -10 -80 -3 -30 -7 -62 -10
-70 -2 -8 -7 -40 -11 -70 -9 -72 -12 -95 -14 -95 -1 0 -3 -13 -5 -30 -5 -38
-25 -162 -31 -195 -3 -14 -7 -36 -9 -50 -3 -14 -16 -86 -30 -160 -15 -74 -28
-146 -31 -160 -2 -14 -7 -31 -10 -39 -2 -8 -7 -30 -10 -50 -3 -20 -10 -54 -16
-76 -5 -22 -12 -51 -14 -65 -3 -14 -12 -54 -20 -89 -9 -36 -17 -72 -19 -80 -2
-9 -13 -56 -25 -106 -12 -49 -23 -97 -25 -105 -2 -8 -13 -51 -25 -95 -11 -44
-23 -90 -26 -102 -2 -12 -9 -34 -14 -48 -5 -14 -8 -25 -6 -25 2 0 -3 -21 -11
-47 -8 -27 -37 -127 -64 -223 -50 -177 -61 -211 -144 -465 -25 -77 -48 -150
-50 -163 -3 -12 -14 -44 -24 -70 -10 -26 -19 -49 -19 -52 0 -3 -3 -12 -6 -20
-3 -8 -12 -35 -20 -60 -8 -25 -36 -103 -62 -175 -26 -71 -55 -152 -64 -180
-40 -112 -159 -423 -184 -480 -8 -16 -17 -41 -21 -55 -4 -14 -15 -43 -25 -65
-9 -22 -25 -60 -35 -85 -9 -25 -21 -52 -26 -60 -10 -16 -10 -16 -44 -105 -13
-33 -31 -78 -41 -100 -10 -22 -18 -42 -19 -45 -1 -3 -13 -31 -28 -64 -15 -32
-27 -60 -27 -62 0 -2 -12 -29 -26 -61 -67 -147 -97 -217 -92 -219 2 0 -2 -7
-9 -15 -6 -8 -31 -59 -56 -114 -77 -171 -127 -279 -137 -295 -6 -8 -15 -26
-21 -40 -5 -14 -17 -38 -25 -54 -8 -16 -14 -32 -14 -35 1 -11 40 44 40 57 0 6
5 12 10 12 6 0 9 3 8 8 -3 12 24 62 34 62 4 0 8 5 8 11 0 6 32 66 72 133 39
66 79 134 87 149 18 32 13 25 101 170 36 60 73 123 83 140 11 18 110 182 220
365 111 183 211 348 222 366 91 151 110 182 115 186 4 3 10 12 13 20 9 18 22
40 131 210 48 74 89 143 93 153 3 9 9 17 14 17 5 0 9 6 9 14 0 8 6 21 13 28 7
7 35 49 62 93 27 44 53 82 57 83 4 2 8 8 8 13 0 6 9 22 19 37 30 43 174 265
186 287 14 25 68 108 75 115 3 3 77 113 165 245 88 132 162 242 165 245 3 3
17 23 32 45 52 79 109 160 124 180 8 11 60 83 115 160 55 77 105 147 112 155
7 8 30 40 52 70 22 30 44 60 50 67 14 17 21 27 90 118 33 44 62 82 65 85 4 3
33 39 65 80 32 41 61 77 64 80 4 3 28 32 56 65 167 202 349 387 495 505 24 19
60 49 81 65 53 43 185 137 217 155 15 8 29 18 32 21 13 15 217 132 328 187
144 73 275 127 427 177 61 21 117 39 125 42 8 3 22 7 30 8 8 1 33 7 55 13 22
6 51 13 65 16 26 5 106 21 150 31 14 3 45 7 70 10 25 3 56 7 70 10 87 17 410
24 545 11 68 -6 89 -8 185 -21 25 -4 47 -6 50 -5 3 1 18 -4 34 -10 16 -6 45
-13 65 -16 41 -6 128 -29 184 -50 20 -8 37 -11 37 -8 0 4 6 2 13 -3 6 -6 30
-16 52 -23 42 -12 66 -22 150 -61 28 -13 52 -23 55 -24 7 -1 132 -67 155 -82
11 -7 28 -16 38 -19 9 -3 17 -10 17 -15 0 -5 5 -9 11 -9 17 0 231 -152 324
-230 116 -98 223 -206 305 -309 19 -24 40 -48 46 -55 5 -6 40 -56 77 -111 37
-55 71 -106 77 -112 6 -7 7 -13 3 -13 -4 0 -3 -4 2 -8 32 -23 159 -293 210
-447 15 -44 29 -87 32 -95 3 -8 7 -19 8 -25 2 -5 13 -48 25 -95 20 -76 45
-203 55 -270 7 -53 18 -147 21 -185 4 -54 4 -370 -1 -420 -6 -78 -16 -170 -20
-205 -10 -75 -37 -219 -49 -258 -3 -9 -7 -28 -10 -42 -9 -50 -71 -235 -81
-242 -5 -4 -7 -8 -3 -8 7 0 -3 -27 -39 -107 -9 -21 -17 -40 -18 -43 -11 -40
-153 -293 -167 -298 -4 -2 -8 -8 -8 -14 0 -13 -94 -140 -172 -232 -40 -48
-180 -189 -229 -231 -99 -85 -497 -394 -554 -431 -16 -10 -32 -21 -35 -25 -3
-4 -21 -16 -40 -27 -19 -11 -91 -54 -160 -97 -69 -43 -135 -83 -147 -89 -13
-6 -23 -14 -23 -18 0 -5 -7 -8 -15 -8 -8 0 -15 -4 -15 -10 0 -5 -6 -10 -13
-10 -8 0 -24 -9 -37 -20 -23 -20 -22 -50 3 -50 19 0 194 51 287 84 41 15 82
28 91 30 9 3 37 14 62 25 25 12 50 21 55 21 5 0 22 6 38 14 16 8 72 33 124 56
52 23 151 72 220 108 69 37 132 70 140 75 8 4 29 16 45 27 17 11 37 23 45 27
8 3 17 9 20 12 3 3 39 28 80 55 175 115 382 286 509 420 25 27 53 56 62 65 65
67 236 291 275 361 10 19 22 37 25 40 7 5 83 141 98 175 5 11 25 55 45 98 75
162 164 472 181 632 3 33 10 87 14 120 9 61 6 495 -3 550 -3 17 -8 55 -11 85
-26 229 -133 611 -235 836 -37 82 -119 245 -130 259 -4 6 -19 31 -33 56 -43
78 -52 94 -58 99 -3 3 -30 41 -59 85 -48 71 -106 151 -120 165 -3 3 -25 30
-50 60 -96 117 -345 367 -435 438 -184 143 -456 297 -690 392 -44 17 -89 36
-100 41 -12 6 -27 11 -35 12 -8 2 -19 5 -25 8 -11 7 -146 49 -173 54 -9 2 -17
4 -17 5 0 1 -8 3 -17 6 -36 8 -43 10 -63 17 -11 3 -32 9 -47 12 -16 3 -40 7
-55 10 -16 3 -37 8 -47 12 -11 3 -34 7 -50 9 -17 1 -44 5 -61 8 -261 51 -736
52 -991 2 -12 -2 -37 -7 -55 -10 -202 -32 -535 -134 -724 -221 -179 -83 -386
-191 -497 -262 -21 -12 -40 -23 -43 -23 -3 0 -11 -5 -18 -10 -24 -21 -152 -99
-155 -95 -4 3 79 136 129 207 10 15 19 30 19 33 0 3 20 36 44 73 88 136 216
344 216 352 0 5 4 10 8 12 4 2 35 48 68 102 32 54 69 115 81 135 13 20 33 53
45 75 13 21 28 46 33 55 6 9 43 72 84 141 41 69 79 128 85 132 6 4 7 8 3 8 -4
0 6 20 23 44 16 25 30 47 30 50 0 3 19 36 41 73 23 38 122 210 221 383 98 173
183 322 188 330 6 8 13 22 17 30 3 8 25 49 48 90 66 118 115 208 163 300 24
47 68 130 97 185 78 150 187 367 240 480 26 55 60 127 75 160 38 78 150 334
150 340 0 3 9 24 19 48 10 23 35 83 54 133 34 91 34 91 17 127 -27 54 -112
153 -221 254 l-34 33 -19 -43z m-1112 -2071 c-3 -9 -10 -16 -15 -16 -5 0 -4 9
3 20 14 22 21 20 12 -4z m-59 -100 c-25 -40 -45 -79 -45 -85 0 -6 -4 -11 -9
-11 -5 0 -11 -8 -14 -17 -3 -10 -20 -43 -38 -73 -17 -30 -45 -80 -62 -110 -16
-30 -38 -67 -49 -82 -10 -14 -18 -28 -18 -31 0 -3 -20 -40 -45 -81 -25 -42
-45 -78 -45 -80 0 -2 -29 -54 -65 -115 -36 -62 -65 -116 -65 -122 0 -5 -4 -9
-8 -9 -4 0 -15 -15 -23 -32 -20 -44 -63 -122 -70 -128 -3 -3 -8 -12 -12 -20
-3 -8 -20 -37 -37 -65 -16 -27 -33 -56 -36 -63 -4 -7 -46 -83 -95 -169 -49
-85 -89 -159 -89 -164 0 -5 -3 -9 -8 -9 -4 0 -13 -15 -21 -32 -8 -18 -17 -35
-20 -38 -3 -3 -15 -23 -27 -45 -12 -22 -104 -184 -204 -360 -101 -176 -188
-329 -194 -340 -6 -11 -76 -134 -156 -273 -160 -279 -172 -300 -220 -387 -18
-33 -44 -77 -57 -97 -13 -21 -23 -40 -23 -43 0 -2 -17 -33 -38 -67 -21 -35
-52 -88 -69 -118 -37 -67 -131 -234 -156 -275 -9 -16 -20 -38 -23 -47 -4 -10
-11 -18 -16 -18 -5 0 -6 -5 -3 -10 3 -5 1 -10 -4 -10 -6 0 -11 -4 -11 -9 0 -4
-34 -69 -76 -142 -42 -74 -86 -150 -96 -169 -11 -19 -47 -81 -79 -137 -33 -56
-59 -107 -59 -112 0 -6 -3 -11 -8 -11 -4 0 -14 -15 -21 -32 -8 -18 -25 -48
-38 -68 -14 -19 -32 -51 -41 -70 -9 -19 -18 -37 -22 -40 -3 -3 -14 -22 -25
-42 -11 -21 -23 -38 -28 -38 -4 0 -2 10 5 23 6 12 13 27 14 32 2 16 54 177 64
200 8 19 87 272 95 305 2 8 14 47 25 85 12 39 23 79 25 90 2 11 4 21 4 23 1 1
1 4 1 7 1 2 7 20 16 40 8 19 12 35 9 35 -2 0 0 12 7 28 10 27 96 348 103 387
2 11 4 20 5 20 1 0 3 9 5 19 3 18 28 125 42 186 3 14 7 31 9 39 1 7 8 34 14
60 6 25 13 60 15 76 2 17 4 30 5 30 2 0 5 16 13 60 3 17 15 82 27 145 23 125
29 157 35 210 2 19 6 46 9 60 3 14 7 52 11 84 3 32 8 62 10 66 2 4 7 43 10 86
3 43 8 93 10 109 27 178 27 811 0 945 -3 14 -8 45 -11 70 -6 45 -8 53 -23 125
-34 155 -94 319 -141 385 -30 41 -26 54 13 46 58 -13 116 -21 297 -41 226 -25
565 -25 765 0 38 5 53 7 143 21 20 3 58 12 85 19 26 8 48 14 50 13 15 -3 246
71 274 88 12 8 30 15 40 17 26 5 134 61 211 111 93 59 184 135 251 206 31 32
59 60 63 60 4 0 -13 -33 -37 -74z"/>
<path d="M6696 3825 c-61 -21 -83 -48 -91 -109 -8 -64 43 -140 114 -168 88
-35 216 21 239 104 17 62 -25 134 -96 164 -49 20 -122 24 -166 9z"/>
<path d="M5160 3823 c-8 -3 -22 -7 -30 -10 -8 -4 -18 -6 -22 -5 -20 4 -140
-176 -126 -191 1 -2 -2 -10 -8 -18 -12 -14 -29 -78 -26 -91 1 -5 -2 -8 -6 -8
-5 0 -9 -6 -9 -12 0 -14 -92 -179 -103 -188 -4 -3 -13 -16 -20 -29 -7 -14 -17
-30 -22 -35 -4 -6 -32 -42 -60 -81 -29 -38 -58 -76 -65 -83 -7 -7 -13 -16 -13
-20 0 -4 -12 -21 -28 -37 -15 -17 -61 -71 -102 -120 -112 -135 -125 -150 -250
-275 -186 -186 -319 -269 -377 -232 -26 17 -31 86 -10 153 10 35 23 66 27 69
4 3 11 16 15 29 7 22 118 212 137 236 5 6 38 55 73 110 35 55 70 107 78 115
13 15 95 147 116 187 14 27 2 61 -34 98 -34 33 -65 45 -116 45 -22 0 -38 4
-34 9 3 5 1 12 -5 16 -5 3 -10 13 -10 20 0 20 -28 52 -65 75 -26 16 -108 37
-127 32 -4 -1 -32 -4 -63 -6 -142 -13 -341 -111 -515 -255 -64 -53 -177 -159
-229 -215 -20 -21 -43 -46 -51 -55 -9 -9 -33 -38 -55 -66 -22 -27 -42 -52 -45
-55 -3 -3 -11 -14 -17 -25 -68 -110 -86 -142 -86 -152 0 -7 -3 -13 -7 -13 -18
0 -53 -140 -56 -223 -3 -78 0 -95 21 -136 43 -86 146 -158 243 -172 119 -17
247 52 433 233 161 156 144 148 145 69 0 -49 7 -80 23 -115 34 -70 96 -126
156 -142 26 -6 81 -16 90 -16 38 1 125 31 158 54 15 11 27 16 27 11 0 -4 4 -3
8 2 4 6 34 30 67 54 33 25 105 91 160 147 92 94 120 125 201 224 16 19 44 49
62 67 17 18 32 37 32 42 0 5 3 11 8 13 6 2 52 57 95 113 4 5 44 57 88 115 44
58 85 112 92 120 7 8 25 32 41 53 l29 38 28 -34 c15 -18 47 -42 71 -52 23 -10
44 -20 46 -20 1 -1 -20 -39 -48 -85 -27 -46 -50 -89 -50 -97 0 -7 -4 -13 -10
-13 -5 0 -9 -3 -8 -7 1 -5 -8 -30 -21 -58 -89 -197 -115 -395 -70 -534 26 -79
67 -124 149 -166 46 -24 181 -25 269 -2 54 15 206 81 221 97 3 3 21 14 40 24
19 11 37 22 40 25 3 4 23 18 45 32 22 15 52 37 66 50 14 13 43 38 65 55 l39
31 0 -96 c1 -105 16 -149 71 -204 57 -57 192 -70 319 -30 105 33 257 129 363
229 l37 35 7 -40 c30 -175 218 -283 432 -246 114 19 302 114 451 228 6 4 28
21 50 38 200 151 455 434 455 504 0 59 -71 69 -116 16 -12 -14 -32 -37 -43
-51 -81 -95 -167 -185 -236 -247 -113 -102 -122 -109 -205 -172 -174 -132
-277 -182 -385 -187 -129 -5 -177 49 -171 195 2 37 8 77 14 87 5 10 11 22 12
26 1 4 4 16 6 25 4 14 15 18 49 17 77 -2 206 28 297 70 18 8 49 22 68 31 170
77 345 207 434 320 68 87 92 219 53 290 -24 42 -86 92 -127 101 -59 13 -147 8
-211 -12 -76 -24 -175 -71 -203 -96 -11 -10 -26 -18 -33 -18 -7 0 -13 -4 -13
-10 0 -5 -4 -10 -10 -10 -5 0 -18 -8 -28 -17 -10 -10 -36 -31 -57 -48 -37 -29
-213 -202 -245 -241 -9 -11 -29 -37 -45 -59 -16 -22 -32 -42 -35 -45 -3 -3
-11 -16 -18 -30 -7 -14 -26 -47 -42 -73 -16 -26 -33 -59 -36 -72 -3 -14 -10
-25 -15 -25 -5 0 -9 -8 -9 -19 0 -14 -123 -141 -137 -141 -3 0 -13 -8 -71 -57
-15 -13 -30 -23 -34 -23 -4 0 -13 -6 -20 -13 -20 -21 -102 -72 -110 -69 -5 1
-8 -2 -8 -7 0 -14 -133 -70 -177 -75 -46 -4 -66 12 -76 60 -22 114 82 297 403
705 41 53 86 111 100 129 14 18 30 38 36 44 55 57 29 119 -67 159 -66 27 -145
6 -210 -57 -50 -48 -101 -106 -129 -146 -13 -19 -27 -37 -30 -40 -11 -9 -127
-204 -161 -270 -39 -74 -56 -95 -155 -194 -75 -76 -96 -94 -159 -140 -22 -17
-42 -33 -45 -36 -11 -13 -139 -90 -195 -118 -153 -77 -294 -77 -338 -2 -23 38
-22 133 2 201 23 68 76 174 107 216 13 17 24 36 24 42 0 6 4 11 9 11 5 0 12 8
15 18 4 10 14 27 24 38 9 10 36 44 59 74 24 30 49 62 56 70 7 8 27 33 43 55
16 22 34 45 40 50 29 26 114 148 114 164 0 27 -42 84 -73 99 -53 26 -81 22
-146 -19 -33 -21 -61 -35 -61 -31 0 4 -4 2 -8 -4 -25 -37 -168 -52 -199 -21
-14 14 -14 19 6 51 13 20 26 36 31 36 5 0 11 8 14 18 4 9 22 35 41 57 37 42
75 128 80 180 3 34 -21 82 -48 97 -22 12 -66 17 -87 11z m-1108 -454 c18 -10
19 -13 7 -23 -8 -6 -34 -40 -59 -76 -24 -36 -48 -69 -53 -75 -11 -14 -159
-218 -177 -246 -8 -12 -23 -31 -32 -41 -10 -10 -18 -20 -18 -23 0 -3 -4 -11
-10 -18 -5 -7 -40 -50 -77 -97 -70 -89 -264 -289 -321 -331 -82 -60 -151 -89
-221 -93 -50 -2 -77 81 -57 179 13 65 84 197 141 261 6 7 26 31 45 55 95 117
345 340 470 419 30 19 57 37 60 40 18 19 152 71 192 74 3 1 9 4 12 7 9 9 73 1
98 -12z m3640 -58 c9 -1 1 -50 -14 -81 -29 -59 -119 -156 -211 -227 -34 -27
-64 -50 -67 -54 -20 -21 -179 -104 -220 -114 -62 -16 -146 -32 -149 -29 -15
13 162 215 280 320 85 75 239 177 271 179 3 0 9 3 12 6 5 4 75 5 98 0z"/>
</g>
</svg>
